<svg viewBox="0 0 960 600" xmlns="http://www.w3.org/2000/svg" font-family="Inter, -apple-system, sans-serif">
  <rect x="0" y="0" width="960" height="600" fill="#F4F3EF"/>

  <text x="230" y="38" text-anchor="middle" font-size="22" fill="#191919" font-weight="600">CPU</text>
  <text x="230" y="60" text-anchor="middle" font-size="13" fill="#6B6B6B">latency-optimized</text>

  <text x="730" y="38" text-anchor="middle" font-size="22" fill="#191919" font-weight="600">GPU</text>
  <text x="730" y="60" text-anchor="middle" font-size="13" fill="#6B6B6B">throughput-optimized</text>

  <!-- CPU chip outline -->
  <rect x="50" y="80" width="360" height="460" rx="10" fill="#E6E4DD" stroke="#191919" stroke-width="1.5"/>

  <g>
    <!-- Core 1 -->
    <rect x="72" y="102" width="155" height="200" rx="6" fill="#F3ECE2" stroke="#191919" stroke-width="1"/>
    <rect x="85" y="115" width="129" height="50" rx="4" fill="#E3EBF2" stroke="#191919" stroke-width="1"/>
    <text x="149" y="145" text-anchor="middle" font-size="12.5" fill="#191919">Control</text>
    <rect x="85" y="173" width="129" height="78" rx="4" fill="#E3EBF2" stroke="#191919" stroke-width="1"/>
    <text x="149" y="216" text-anchor="middle" font-size="12.5" fill="#191919">L1/L2 Cache</text>
    <rect x="85" y="259" width="54" height="30" rx="3" fill="#D97757" stroke="#191919" stroke-width="1"/>
    <text x="112" y="279" text-anchor="middle" font-size="10.5" fill="#F4F3EF">ALU</text>

    <!-- Core 2 -->
    <rect x="240" y="102" width="155" height="200" rx="6" fill="#F3ECE2" stroke="#191919" stroke-width="1"/>
    <rect x="253" y="115" width="129" height="50" rx="4" fill="#E3EBF2" stroke="#191919" stroke-width="1"/>
    <text x="317" y="145" text-anchor="middle" font-size="12.5" fill="#191919">Control</text>
    <rect x="253" y="173" width="129" height="78" rx="4" fill="#E3EBF2" stroke="#191919" stroke-width="1"/>
    <text x="317" y="216" text-anchor="middle" font-size="12.5" fill="#191919">L1/L2 Cache</text>
    <rect x="253" y="259" width="54" height="30" rx="3" fill="#D97757" stroke="#191919" stroke-width="1"/>
    <text x="280" y="279" text-anchor="middle" font-size="10.5" fill="#F4F3EF">ALU</text>

    <!-- Core 3 -->
    <rect x="72" y="318" width="155" height="200" rx="6" fill="#F3ECE2" stroke="#191919" stroke-width="1"/>
    <rect x="85" y="331" width="129" height="50" rx="4" fill="#E3EBF2" stroke="#191919" stroke-width="1"/>
    <text x="149" y="361" text-anchor="middle" font-size="12.5" fill="#191919">Control</text>
    <rect x="85" y="389" width="129" height="78" rx="4" fill="#E3EBF2" stroke="#191919" stroke-width="1"/>
    <text x="149" y="432" text-anchor="middle" font-size="12.5" fill="#191919">L1/L2 Cache</text>
    <rect x="85" y="475" width="54" height="30" rx="3" fill="#D97757" stroke="#191919" stroke-width="1"/>
    <text x="112" y="495" text-anchor="middle" font-size="10.5" fill="#F4F3EF">ALU</text>

    <!-- Core 4 -->
    <rect x="240" y="318" width="155" height="200" rx="6" fill="#F3ECE2" stroke="#191919" stroke-width="1"/>
    <rect x="253" y="331" width="129" height="50" rx="4" fill="#E3EBF2" stroke="#191919" stroke-width="1"/>
    <text x="317" y="361" text-anchor="middle" font-size="12.5" fill="#191919">Control</text>
    <rect x="253" y="389" width="129" height="78" rx="4" fill="#E3EBF2" stroke="#191919" stroke-width="1"/>
    <text x="317" y="432" text-anchor="middle" font-size="12.5" fill="#191919">L1/L2 Cache</text>
    <rect x="253" y="475" width="54" height="30" rx="3" fill="#D97757" stroke="#191919" stroke-width="1"/>
    <text x="280" y="495" text-anchor="middle" font-size="10.5" fill="#F4F3EF">ALU</text>
  </g>

  <!-- GPU chip outline -->
  <rect x="550" y="80" width="360" height="460" rx="10" fill="#E6E4DD" stroke="#191919" stroke-width="1.5"/>
  <rect x="570" y="98" width="320" height="34" rx="4" fill="#E3EBF2" stroke="#191919" stroke-width="1"/>
  <text x="730" y="120" text-anchor="middle" font-size="12.5" fill="#191919">Shared control / cache (small)</text>

  <g fill="#D97757" stroke="#191919" stroke-width="0.5">
    <g transform="translate(572,148)">
      <rect x="0" y="0" width="26" height="24"/><rect x="30" y="0" width="26" height="24"/><rect x="60" y="0" width="26" height="24"/><rect x="90" y="0" width="26" height="24"/><rect x="120" y="0" width="26" height="24"/><rect x="150" y="0" width="26" height="24"/><rect x="180" y="0" width="26" height="24"/><rect x="210" y="0" width="26" height="24"/><rect x="240" y="0" width="26" height="24"/><rect x="270" y="0" width="26" height="24"/>
      <rect x="0" y="30" width="26" height="24"/><rect x="30" y="30" width="26" height="24"/><rect x="60" y="30" width="26" height="24"/><rect x="90" y="30" width="26" height="24"/><rect x="120" y="30" width="26" height="24"/><rect x="150" y="30" width="26" height="24"/><rect x="180" y="30" width="26" height="24"/><rect x="210" y="30" width="26" height="24"/><rect x="240" y="30" width="26" height="24"/><rect x="270" y="30" width="26" height="24"/>
      <rect x="0" y="60" width="26" height="24"/><rect x="30" y="60" width="26" height="24"/><rect x="60" y="60" width="26" height="24"/><rect x="90" y="60" width="26" height="24"/><rect x="120" y="60" width="26" height="24"/><rect x="150" y="60" width="26" height="24"/><rect x="180" y="60" width="26" height="24"/><rect x="210" y="60" width="26" height="24"/><rect x="240" y="60" width="26" height="24"/><rect x="270" y="60" width="26" height="24"/>
      <rect x="0" y="90" width="26" height="24"/><rect x="30" y="90" width="26" height="24"/><rect x="60" y="90" width="26" height="24"/><rect x="90" y="90" width="26" height="24"/><rect x="120" y="90" width="26" height="24"/><rect x="150" y="90" width="26" height="24"/><rect x="180" y="90" width="26" height="24"/><rect x="210" y="90" width="26" height="24"/><rect x="240" y="90" width="26" height="24"/><rect x="270" y="90" width="26" height="24"/>
      <rect x="0" y="120" width="26" height="24"/><rect x="30" y="120" width="26" height="24"/><rect x="60" y="120" width="26" height="24"/><rect x="90" y="120" width="26" height="24"/><rect x="120" y="120" width="26" height="24"/><rect x="150" y="120" width="26" height="24"/><rect x="180" y="120" width="26" height="24"/><rect x="210" y="120" width="26" height="24"/><rect x="240" y="120" width="26" height="24"/><rect x="270" y="120" width="26" height="24"/>
      <rect x="0" y="150" width="26" height="24"/><rect x="30" y="150" width="26" height="24"/><rect x="60" y="150" width="26" height="24"/><rect x="90" y="150" width="26" height="24"/><rect x="120" y="150" width="26" height="24"/><rect x="150" y="150" width="26" height="24"/><rect x="180" y="150" width="26" height="24"/><rect x="210" y="150" width="26" height="24"/><rect x="240" y="150" width="26" height="24"/><rect x="270" y="150" width="26" height="24"/>
      <rect x="0" y="180" width="26" height="24"/><rect x="30" y="180" width="26" height="24"/><rect x="60" y="180" width="26" height="24"/><rect x="90" y="180" width="26" height="24"/><rect x="120" y="180" width="26" height="24"/><rect x="150" y="180" width="26" height="24"/><rect x="180" y="180" width="26" height="24"/><rect x="210" y="180" width="26" height="24"/><rect x="240" y="180" width="26" height="24"/><rect x="270" y="180" width="26" height="24"/>
      <rect x="0" y="210" width="26" height="24"/><rect x="30" y="210" width="26" height="24"/><rect x="60" y="210" width="26" height="24"/><rect x="90" y="210" width="26" height="24"/><rect x="120" y="210" width="26" height="24"/><rect x="150" y="210" width="26" height="24"/><rect x="180" y="210" width="26" height="24"/><rect x="210" y="210" width="26" height="24"/><rect x="240" y="210" width="26" height="24"/><rect x="270" y="210" width="26" height="24"/>
      <rect x="0" y="240" width="26" height="24"/><rect x="30" y="240" width="26" height="24"/><rect x="60" y="240" width="26" height="24"/><rect x="90" y="240" width="26" height="24"/><rect x="120" y="240" width="26" height="24"/><rect x="150" y="240" width="26" height="24"/><rect x="180" y="240" width="26" height="24"/><rect x="210" y="240" width="26" height="24"/><rect x="240" y="240" width="26" height="24"/><rect x="270" y="240" width="26" height="24"/>
      <rect x="0" y="270" width="26" height="24"/><rect x="30" y="270" width="26" height="24"/><rect x="60" y="270" width="26" height="24"/><rect x="90" y="270" width="26" height="24"/><rect x="120" y="270" width="26" height="24"/><rect x="150" y="270" width="26" height="24"/><rect x="180" y="270" width="26" height="24"/><rect x="210" y="270" width="26" height="24"/><rect x="240" y="270" width="26" height="24"/><rect x="270" y="270" width="26" height="24"/>
      <rect x="0" y="300" width="26" height="24"/><rect x="30" y="300" width="26" height="24"/><rect x="60" y="300" width="26" height="24"/><rect x="90" y="300" width="26" height="24"/><rect x="120" y="300" width="26" height="24"/><rect x="150" y="300" width="26" height="24"/><rect x="180" y="300" width="26" height="24"/><rect x="210" y="300" width="26" height="24"/><rect x="240" y="300" width="26" height="24"/><rect x="270" y="300" width="26" height="24"/>
    </g>
  </g>

  <text x="730" y="500" text-anchor="middle" font-size="12.5" fill="#191919">1000s of simple ALUs, grouped into SMs</text>

  <text x="230" y="565" text-anchor="middle" font-size="13" fill="#191919">Most silicon → control &amp; cache</text>
  <text x="730" y="565" text-anchor="middle" font-size="13" fill="#191919">Most silicon → arithmetic units</text>
</svg>
