<svg viewBox="0 0 960 560" xmlns="http://www.w3.org/2000/svg" font-family="Inter, -apple-system, sans-serif">
  <rect x="0" y="0" width="960" height="560" fill="#F4F3EF"/>
  <text x="480" y="38" text-anchor="middle" font-size="22" font-weight="600" fill="#191919">DeepSpeed Ulysses: Transpose the Split With All-to-All</text>
  <text x="480" y="60" text-anchor="middle" font-size="13" fill="#6B6B6B">one communication step turns a sequence-parallel layout into a head-parallel layout, and back again</text>

  <defs>
    <marker id="uarrow" markerWidth="9" markerHeight="9" refX="4.5" refY="4.5" orient="auto">
      <path d="M0,0 L9,4.5 L0,9 z" fill="#191919"/>
    </marker>
  </defs>

  <text x="230" y="132" text-anchor="middle" font-size="13.5" font-weight="600" fill="#191919">before: split by sequence</text>
  <text x="230" y="470" text-anchor="middle" font-size="11.5" fill="#6B6B6B">each GPU: all heads, 1/4 of sequence positions</text>

  <!-- Panel A: column split (sequence) -->
  <rect x="80" y="150" width="40" height="40" fill="#D97757" stroke="#191919" stroke-width="0.8"/>
  <rect x="120" y="150" width="40" height="40" fill="#D97757" stroke="#191919" stroke-width="0.8"/>
  <rect x="160" y="150" width="40" height="40" fill="#8DA399" stroke="#191919" stroke-width="0.8"/>
  <rect x="200" y="150" width="40" height="40" fill="#8DA399" stroke="#191919" stroke-width="0.8"/>
  <rect x="240" y="150" width="40" height="40" fill="#E3EBF2" stroke="#191919" stroke-width="0.8"/>
  <rect x="280" y="150" width="40" height="40" fill="#E3EBF2" stroke="#191919" stroke-width="0.8"/>
  <rect x="320" y="150" width="40" height="40" fill="#F3ECE2" stroke="#191919" stroke-width="0.8"/>
  <rect x="360" y="150" width="40" height="40" fill="#F3ECE2" stroke="#191919" stroke-width="0.8"/>
  <rect x="80" y="190" width="40" height="40" fill="#D97757" stroke="#191919" stroke-width="0.8"/>
  <rect x="120" y="190" width="40" height="40" fill="#D97757" stroke="#191919" stroke-width="0.8"/>
  <rect x="160" y="190" width="40" height="40" fill="#8DA399" stroke="#191919" stroke-width="0.8"/>
  <rect x="200" y="190" width="40" height="40" fill="#8DA399" stroke="#191919" stroke-width="0.8"/>
  <rect x="240" y="190" width="40" height="40" fill="#E3EBF2" stroke="#191919" stroke-width="0.8"/>
  <rect x="280" y="190" width="40" height="40" fill="#E3EBF2" stroke="#191919" stroke-width="0.8"/>
  <rect x="320" y="190" width="40" height="40" fill="#F3ECE2" stroke="#191919" stroke-width="0.8"/>
  <rect x="360" y="190" width="40" height="40" fill="#F3ECE2" stroke="#191919" stroke-width="0.8"/>
  <rect x="80" y="230" width="40" height="40" fill="#D97757" stroke="#191919" stroke-width="0.8"/>
  <rect x="120" y="230" width="40" height="40" fill="#D97757" stroke="#191919" stroke-width="0.8"/>
  <rect x="160" y="230" width="40" height="40" fill="#8DA399" stroke="#191919" stroke-width="0.8"/>
  <rect x="200" y="230" width="40" height="40" fill="#8DA399" stroke="#191919" stroke-width="0.8"/>
  <rect x="240" y="230" width="40" height="40" fill="#E3EBF2" stroke="#191919" stroke-width="0.8"/>
  <rect x="280" y="230" width="40" height="40" fill="#E3EBF2" stroke="#191919" stroke-width="0.8"/>
  <rect x="320" y="230" width="40" height="40" fill="#F3ECE2" stroke="#191919" stroke-width="0.8"/>
  <rect x="360" y="230" width="40" height="40" fill="#F3ECE2" stroke="#191919" stroke-width="0.8"/>
  <rect x="80" y="270" width="40" height="40" fill="#D97757" stroke="#191919" stroke-width="0.8"/>
  <rect x="120" y="270" width="40" height="40" fill="#D97757" stroke="#191919" stroke-width="0.8"/>
  <rect x="160" y="270" width="40" height="40" fill="#8DA399" stroke="#191919" stroke-width="0.8"/>
  <rect x="200" y="270" width="40" height="40" fill="#8DA399" stroke="#191919" stroke-width="0.8"/>
  <rect x="240" y="270" width="40" height="40" fill="#E3EBF2" stroke="#191919" stroke-width="0.8"/>
  <rect x="280" y="270" width="40" height="40" fill="#E3EBF2" stroke="#191919" stroke-width="0.8"/>
  <rect x="320" y="270" width="40" height="40" fill="#F3ECE2" stroke="#191919" stroke-width="0.8"/>
  <rect x="360" y="270" width="40" height="40" fill="#F3ECE2" stroke="#191919" stroke-width="0.8"/>

  <text x="35" y="175" text-anchor="middle" font-size="10.5" fill="#6B6B6B">heads</text>
  <text x="230" y="330" text-anchor="middle" font-size="10.5" fill="#6B6B6B">sequence position →</text>

  <!-- Arrow between panels -->
  <line x1="410" y1="230" x2="530" y2="230" stroke="#191919" stroke-width="1.6" marker-end="url(#uarrow)"/>
  <text x="470" y="215" text-anchor="middle" font-size="12" font-weight="600" fill="#191919">All-to-All</text>

  <!-- Panel B: row split (heads) -->
  <text x="700" y="132" text-anchor="middle" font-size="13.5" font-weight="600" fill="#191919">after: split by heads</text>
  <text x="700" y="470" text-anchor="middle" font-size="11.5" fill="#6B6B6B">each GPU: full sequence, 1/4 of the attention heads</text>

  <rect x="560" y="150" width="40" height="40" fill="#D97757" stroke="#191919" stroke-width="0.8"/>
  <rect x="600" y="150" width="40" height="40" fill="#D97757" stroke="#191919" stroke-width="0.8"/>
  <rect x="640" y="150" width="40" height="40" fill="#D97757" stroke="#191919" stroke-width="0.8"/>
  <rect x="680" y="150" width="40" height="40" fill="#D97757" stroke="#191919" stroke-width="0.8"/>
  <rect x="720" y="150" width="40" height="40" fill="#D97757" stroke="#191919" stroke-width="0.8"/>
  <rect x="760" y="150" width="40" height="40" fill="#D97757" stroke="#191919" stroke-width="0.8"/>
  <rect x="800" y="150" width="40" height="40" fill="#D97757" stroke="#191919" stroke-width="0.8"/>
  <rect x="840" y="150" width="40" height="40" fill="#D97757" stroke="#191919" stroke-width="0.8"/>
  <rect x="560" y="190" width="40" height="40" fill="#8DA399" stroke="#191919" stroke-width="0.8"/>
  <rect x="600" y="190" width="40" height="40" fill="#8DA399" stroke="#191919" stroke-width="0.8"/>
  <rect x="640" y="190" width="40" height="40" fill="#8DA399" stroke="#191919" stroke-width="0.8"/>
  <rect x="680" y="190" width="40" height="40" fill="#8DA399" stroke="#191919" stroke-width="0.8"/>
  <rect x="720" y="190" width="40" height="40" fill="#8DA399" stroke="#191919" stroke-width="0.8"/>
  <rect x="760" y="190" width="40" height="40" fill="#8DA399" stroke="#191919" stroke-width="0.8"/>
  <rect x="800" y="190" width="40" height="40" fill="#8DA399" stroke="#191919" stroke-width="0.8"/>
  <rect x="840" y="190" width="40" height="40" fill="#8DA399" stroke="#191919" stroke-width="0.8"/>
  <rect x="560" y="230" width="40" height="40" fill="#E3EBF2" stroke="#191919" stroke-width="0.8"/>
  <rect x="600" y="230" width="40" height="40" fill="#E3EBF2" stroke="#191919" stroke-width="0.8"/>
  <rect x="640" y="230" width="40" height="40" fill="#E3EBF2" stroke="#191919" stroke-width="0.8"/>
  <rect x="680" y="230" width="40" height="40" fill="#E3EBF2" stroke="#191919" stroke-width="0.8"/>
  <rect x="720" y="230" width="40" height="40" fill="#E3EBF2" stroke="#191919" stroke-width="0.8"/>
  <rect x="760" y="230" width="40" height="40" fill="#E3EBF2" stroke="#191919" stroke-width="0.8"/>
  <rect x="800" y="230" width="40" height="40" fill="#E3EBF2" stroke="#191919" stroke-width="0.8"/>
  <rect x="840" y="230" width="40" height="40" fill="#E3EBF2" stroke="#191919" stroke-width="0.8"/>
  <rect x="560" y="270" width="40" height="40" fill="#F3ECE2" stroke="#191919" stroke-width="0.8"/>
  <rect x="600" y="270" width="40" height="40" fill="#F3ECE2" stroke="#191919" stroke-width="0.8"/>
  <rect x="640" y="270" width="40" height="40" fill="#F3ECE2" stroke="#191919" stroke-width="0.8"/>
  <rect x="680" y="270" width="40" height="40" fill="#F3ECE2" stroke="#191919" stroke-width="0.8"/>
  <rect x="720" y="270" width="40" height="40" fill="#F3ECE2" stroke="#191919" stroke-width="0.8"/>
  <rect x="760" y="270" width="40" height="40" fill="#F3ECE2" stroke="#191919" stroke-width="0.8"/>
  <rect x="800" y="270" width="40" height="40" fill="#F3ECE2" stroke="#191919" stroke-width="0.8"/>
  <rect x="840" y="270" width="40" height="40" fill="#F3ECE2" stroke="#191919" stroke-width="0.8"/>

  <text x="700" y="330" text-anchor="middle" font-size="10.5" fill="#6B6B6B">sequence position →</text>

  <text x="480" y="410" text-anchor="middle" font-size="13" font-weight="600" fill="#191919">each GPU now holds every position but only its own heads — attention runs fully local, no more communication</text>
  <text x="480" y="500" text-anchor="middle" font-size="13" fill="#191919" font-weight="600">a second All-to-All after attention swaps the layout back for the rest of the layer</text>
  <text x="480" y="522" text-anchor="middle" font-size="12" fill="#6B6B6B">parallelism degree is capped by the number of heads — can't split further than 1 GPU per head</text>
</svg>
