<svg viewBox="0 0 1000 600" xmlns="http://www.w3.org/2000/svg" font-family="Inter, -apple-system, sans-serif">
  <rect x="0" y="0" width="1000" height="600" fill="#F4F3EF"/>
  <text x="500" y="38" text-anchor="middle" font-size="22" font-weight="600" fill="#191919">From a Bottleneck to a Ring</text>
  <text x="500" y="60" text-anchor="middle" font-size="13" fill="#6B6B6B">same goal — average gradients across GPUs — very different communication shape</text>

  <defs>
    <marker id="rarrow" markerWidth="9" markerHeight="9" refX="4.5" refY="4.5" orient="auto">
      <path d="M0,0 L9,4.5 L0,9 z" fill="#191919"/>
    </marker>
  </defs>

  <!-- Left panel: parameter server -->
  <rect x="30" y="86" width="440" height="440" rx="12" fill="#E6E4DD" stroke="#191919" stroke-width="1.5"/>
  <text x="250" y="118" text-anchor="middle" font-size="15" font-weight="600" fill="#191919">Naive DP: parameter server</text>

  <rect x="205" y="270" width="90" height="60" rx="6" fill="#D97757" stroke="#191919" stroke-width="1.3"/>
  <text x="250" y="305" text-anchor="middle" font-size="12.5" fill="#F4F3EF">Server</text>

  <rect x="210" y="150" width="80" height="55" rx="5" fill="#8DA399" stroke="#191919" stroke-width="1"/>
  <text x="250" y="182" text-anchor="middle" font-size="12" fill="#191919">GPU 0</text>
  <rect x="70" y="270" width="80" height="55" rx="5" fill="#8DA399" stroke="#191919" stroke-width="1"/>
  <text x="110" y="302" text-anchor="middle" font-size="12" fill="#191919">GPU 1</text>
  <rect x="350" y="270" width="80" height="55" rx="5" fill="#8DA399" stroke="#191919" stroke-width="1"/>
  <text x="390" y="302" text-anchor="middle" font-size="12" fill="#191919">GPU 2</text>
  <rect x="210" y="390" width="80" height="55" rx="5" fill="#8DA399" stroke="#191919" stroke-width="1"/>
  <text x="250" y="422" text-anchor="middle" font-size="12" fill="#191919">GPU 3</text>

  <line x1="250" y1="205" x2="250" y2="270" stroke="#191919" stroke-width="1.4" marker-end="url(#rarrow)"/>
  <line x1="150" y1="297" x2="205" y2="297" stroke="#191919" stroke-width="1.4" marker-end="url(#rarrow)"/>
  <line x1="350" y1="297" x2="295" y2="297" stroke="#191919" stroke-width="1.4" marker-end="url(#rarrow)"/>
  <line x1="250" y1="390" x2="250" y2="330" stroke="#191919" stroke-width="1.4" marker-end="url(#rarrow)"/>

  <text x="250" y="480" text-anchor="middle" font-size="12.5" font-weight="600" fill="#191919">every GPU's gradients funnel through 1 node</text>
  <text x="250" y="500" text-anchor="middle" font-size="12" fill="#6B6B6B">server's bandwidth is shared across all N GPUs</text>

  <!-- Right panel: ring all-reduce -->
  <rect x="530" y="86" width="440" height="440" rx="12" fill="#E6E4DD" stroke="#191919" stroke-width="1.5"/>
  <text x="750" y="118" text-anchor="middle" font-size="15" font-weight="600" fill="#191919">DDP: Ring-AllReduce</text>

  <rect x="670" y="150" width="80" height="55" rx="5" fill="#8DA399" stroke="#191919" stroke-width="1"/>
  <text x="710" y="182" text-anchor="middle" font-size="12" fill="#191919">GPU 0</text>
  <rect x="870" y="150" width="80" height="55" rx="5" fill="#8DA399" stroke="#191919" stroke-width="1"/>
  <text x="910" y="182" text-anchor="middle" font-size="12" fill="#191919">GPU 1</text>
  <rect x="870" y="390" width="80" height="55" rx="5" fill="#8DA399" stroke="#191919" stroke-width="1"/>
  <text x="910" y="422" text-anchor="middle" font-size="12" fill="#191919">GPU 2</text>
  <rect x="670" y="390" width="80" height="55" rx="5" fill="#8DA399" stroke="#191919" stroke-width="1"/>
  <text x="710" y="422" text-anchor="middle" font-size="12" fill="#191919">GPU 3</text>

  <line x1="750" y1="177" x2="870" y2="177" stroke="#191919" stroke-width="1.4" marker-end="url(#rarrow)"/>
  <line x1="910" y1="205" x2="910" y2="390" stroke="#191919" stroke-width="1.4" marker-end="url(#rarrow)"/>
  <line x1="870" y1="417" x2="750" y2="417" stroke="#191919" stroke-width="1.4" marker-end="url(#rarrow)"/>
  <line x1="710" y1="390" x2="710" y2="205" stroke="#191919" stroke-width="1.4" marker-end="url(#rarrow)"/>

  <text x="750" y="480" text-anchor="middle" font-size="12.5" font-weight="600" fill="#191919">every GPU only talks to its 2 ring neighbors</text>
  <text x="750" y="500" text-anchor="middle" font-size="12" fill="#6B6B6B">per-GPU traffic ≈ 2(N-1)/N × gradient size — flat as N grows</text>
</svg>
