<svg viewBox="0 0 980 600" xmlns="http://www.w3.org/2000/svg" font-family="Inter, -apple-system, sans-serif">
  <rect x="0" y="0" width="980" height="600" fill="#F4F3EF"/>
  <text x="490" y="38" text-anchor="middle" font-size="22" font-weight="600" fill="#191919">The GPU Memory Hierarchy</text>
  <text x="490" y="59" text-anchor="middle" font-size="13" fill="#6B6B6B">smaller &amp; faster at top, bigger &amp; slower at bottom (H100-class, order of magnitude)</text>

  <!-- L1 Registers: triangle apex -->
  <polygon points="490,80 560,158 420,158" fill="#D97757" stroke="#191919" stroke-width="1"/>
  <text x="490" y="148" text-anchor="middle" font-size="12.5" font-weight="600" fill="#F4F3EF">Registers</text>

  <!-- L2 Shared memory / L1 -->
  <polygon points="420,158 560,158 630,236 350,236" fill="#8DA399" stroke="#191919" stroke-width="1"/>
  <text x="490" y="200" text-anchor="middle" font-size="13.5" font-weight="600" fill="#191919">Shared Memory / L1</text>
  <text x="490" y="220" text-anchor="middle" font-size="11.5" fill="#191919">~100–256 KB/SM · ~20–30 cyc</text>

  <!-- L3 L2 Cache -->
  <polygon points="350,236 630,236 700,314 280,314" fill="#E3EBF2" stroke="#191919" stroke-width="1"/>
  <text x="490" y="278" text-anchor="middle" font-size="14" font-weight="600" fill="#191919">L2 Cache</text>
  <text x="490" y="298" text-anchor="middle" font-size="12" fill="#191919">~50 MB, chip-wide · ~200 cyc</text>

  <!-- L4 HBM -->
  <polygon points="280,314 700,314 770,392 210,392" fill="#F3ECE2" stroke="#191919" stroke-width="1"/>
  <text x="490" y="356" text-anchor="middle" font-size="14.5" font-weight="600" fill="#191919">HBM (Device Memory)</text>
  <text x="490" y="376" text-anchor="middle" font-size="12" fill="#191919">40–192 GB · ~3–8 TB/s · ~500 cyc</text>

  <!-- L5 Host DRAM -->
  <polygon points="210,392 770,392 840,470 140,470" fill="#E6E4DD" stroke="#191919" stroke-width="1"/>
  <text x="490" y="434" text-anchor="middle" font-size="15" font-weight="600" fill="#191919">Host (CPU) DRAM — over PCIe</text>
  <text x="490" y="454" text-anchor="middle" font-size="12.5" fill="#191919">100s of GB · ~32–64 GB/s/dir · ~1000s of cyc</text>

  <!-- L6 Remote GPU -->
  <polygon points="140,470 840,470 910,555 70,555" fill="#DCD9CE" stroke="#191919" stroke-width="1"/>
  <text x="490" y="516" text-anchor="middle" font-size="15" font-weight="600" fill="#191919">Remote GPU Memory — NVLink / InfiniBand</text>
  <text x="490" y="537" text-anchor="middle" font-size="12.5" fill="#191919">NVLink ~0.9–1.8 TB/s (node) · InfiniBand ~50 GB/s/GPU (cluster)</text>

  <!-- Right-side annotation -->
  <defs>
    <marker id="arrow" markerWidth="9" markerHeight="9" refX="4.5" refY="4.5" orient="auto">
      <path d="M0,0 L9,4.5 L0,9 z" fill="#191919"/>
    </marker>
  </defs>
  <line x1="945" y1="100" x2="945" y2="540" stroke="#191919" stroke-width="1.2" marker-end="url(#arrow)"/>
</svg>
