<svg viewBox="0 0 1160 380" xmlns="http://www.w3.org/2000/svg" font-family="Inter, -apple-system, sans-serif">
  <rect x="0" y="0" width="1160" height="380" fill="#F4F3EF"/>
  <text x="580" y="34" text-anchor="middle" font-size="20" font-weight="600" fill="#191919">Competing for a Budget vs. Scoring Independently</text>
  <text x="580" y="55" text-anchor="middle" font-size="12.5" fill="#6B6B6B">same 5 experts, same raw logits — only expert 3's logit goes up</text>

  <!-- Panel 1: Softmax, before/after -->
  <g>
    <rect x="30" y="80" width="500" height="280" rx="10" fill="#FFFFFF" stroke="#191919" stroke-opacity="0.12" stroke-width="1.2"/>
    <text x="280" y="108" text-anchor="middle" font-size="13.5" font-weight="600" fill="#191919">Softmax — competitive</text>
    <text x="280" y="126" text-anchor="middle" font-size="10" fill="#6B6B6B">g_i = exp(x·e_i) / Σ_j exp(x·e_j)</text>

    <text x="130" y="150" text-anchor="middle" font-size="10" fill="#6B6B6B">before</text>
    <!-- bars before: roughly equal, 5 bars -->
    <g fill="#191919" fill-opacity="0.55">
      <rect x="70" y="200" width="26" height="40"/>
      <rect x="105" y="200" width="26" height="40"/>
      <rect x="140" y="200" width="26" height="40"/>
      <rect x="175" y="200" width="26" height="40"/>
      <rect x="210" y="200" width="26" height="40"/>
    </g>
    <line x1="55" y1="240" x2="250" y2="240" stroke="#191919" stroke-opacity="0.3" stroke-width="1"/>

    <text x="410" y="150" text-anchor="middle" font-size="10" fill="#6B6B6B">after raising expert 3</text>
    <!-- bars after: expert 3 way up, all others shrink -->
    <g fill-opacity="0.85">
      <rect x="330" y="222" width="26" height="18" fill="#191919"/>
      <rect x="365" y="222" width="26" height="18" fill="#191919"/>
      <rect x="400" y="160" width="26" height="80" fill="#D97757"/>
      <rect x="435" y="222" width="26" height="18" fill="#191919"/>
      <rect x="470" y="222" width="26" height="18" fill="#191919"/>
    </g>
    <line x1="315" y1="240" x2="510" y2="240" stroke="#191919" stroke-opacity="0.3" stroke-width="1"/>
    <text x="413" y="255" text-anchor="middle" font-size="9" fill="#6B6B6B">E3</text>

    <text x="280" y="290" text-anchor="middle" font-size="11" font-weight="600" fill="#191919">the other four all shrink</text>
    <text x="280" y="307" text-anchor="middle" font-size="9.5" fill="#6B6B6B">scores share one fixed probability budget</text>
    <text x="280" y="330" text-anchor="middle" font-size="9.5" fill="#6B6B6B">used by Shazeer, GShard, Switch, Mixtral</text>
  </g>

  <!-- Panel 2: Sigmoid, before/after -->
  <g>
    <rect x="560" y="80" width="570" height="280" rx="10" fill="#FFFFFF" stroke="#191919" stroke-opacity="0.12" stroke-width="1.2"/>
    <text x="845" y="108" text-anchor="middle" font-size="13.5" font-weight="600" fill="#191919">Sigmoid / Sqrt(Softplus) — independent</text>
    <text x="845" y="126" text-anchor="middle" font-size="10" fill="#6B6B6B">g_i = sigmoid(x·e_i) = 1 / (1 + exp(−x·e_i))</text>

    <text x="660" y="150" text-anchor="middle" font-size="10" fill="#6B6B6B">before</text>
    <g fill="#191919" fill-opacity="0.55">
      <rect x="600" y="200" width="26" height="40"/>
      <rect x="635" y="200" width="26" height="40"/>
      <rect x="670" y="200" width="26" height="40"/>
      <rect x="705" y="200" width="26" height="40"/>
      <rect x="740" y="200" width="26" height="40"/>
    </g>
    <line x1="585" y1="240" x2="780" y2="240" stroke="#191919" stroke-opacity="0.3" stroke-width="1"/>

    <text x="990" y="150" text-anchor="middle" font-size="10" fill="#6B6B6B">after raising expert 3</text>
    <!-- bars after: expert 3 up, all others UNCHANGED -->
    <g fill-opacity="0.85">
      <rect x="900" y="200" width="26" height="40" fill="#191919"/>
      <rect x="935" y="200" width="26" height="40" fill="#191919"/>
      <rect x="970" y="160" width="26" height="80" fill="#D97757"/>
      <rect x="1005" y="200" width="26" height="40" fill="#191919"/>
      <rect x="1040" y="200" width="26" height="40" fill="#191919"/>
    </g>
    <line x1="885" y1="240" x2="1080" y2="240" stroke="#191919" stroke-opacity="0.3" stroke-width="1"/>
    <text x="983" y="255" text-anchor="middle" font-size="9" fill="#6B6B6B">E3</text>

    <text x="845" y="290" text-anchor="middle" font-size="11" font-weight="600" fill="#191919">the other four stay exactly the same</text>
    <text x="845" y="307" text-anchor="middle" font-size="9.5" fill="#6B6B6B">each expert scored on its own merit, no shared budget</text>
    <text x="845" y="330" text-anchor="middle" font-size="9.5" fill="#6B6B6B">DeepSeek-V3, GLM-5.2 (sigmoid) · DeepSeek-V4 (Sqrt-Softplus)</text>
  </g>
</svg>
