<svg viewBox="0 0 1160 380" xmlns="http://www.w3.org/2000/svg" font-family="Inter, -apple-system, sans-serif">
  <rect x="0" y="0" width="1160" height="380" fill="#F4F3EF"/>
  <text x="580" y="34" text-anchor="middle" font-size="20" font-weight="600" fill="#191919">Same Total Capacity, Sliced Differently</text>
  <text x="580" y="55" text-anchor="middle" font-size="12.5" fill="#6B6B6B">DeepSeekMoE's fine-grained-segmentation idea: same total FFN width, many more, smaller pieces</text>

  <!-- Panel 1: coarse -->
  <g>
    <rect x="40" y="80" width="500" height="260" rx="10" fill="#FFFFFF" stroke="#191919" stroke-opacity="0.12" stroke-width="1.2"/>
    <text x="290" y="108" text-anchor="middle" font-size="13.5" font-weight="600" fill="#191919">Coarse-grained (Switch / Mixtral style)</text>
    <text x="290" y="126" text-anchor="middle" font-size="10" fill="#6B6B6B">N = 8 experts, top-2 — 25% of the pool active</text>

    <rect x="80" y="150" width="100" height="100" rx="6" fill="#F3ECE2" stroke="#191919" stroke-width="1.2"/>
    <rect x="200" y="150" width="100" height="100" rx="6" fill="#D97757" stroke="#191919" stroke-width="1.2"/>
    <rect x="320" y="150" width="100" height="100" rx="6" fill="#D97757" stroke="#191919" stroke-width="1.2"/>
    <rect x="440" y="150" width="100" height="100" rx="6" fill="#F3ECE2" stroke="#191919" stroke-width="1.2"/>
    <text x="290" y="270" text-anchor="middle" font-size="10" fill="#6B6B6B">(4 of 8 shown — each expert is a full-size FFN)</text>
    <text x="290" y="300" text-anchor="middle" font-size="10.5" fill="#191919" font-weight="600">2 of 8 active → only 4 possible pairs</text>
    <text x="290" y="317" text-anchor="middle" font-size="9.5" fill="#6B6B6B">coarse capacity increments, little combinatorial choice</text>
  </g>

  <!-- Panel 2: fine-grained -->
  <g>
    <rect x="580" y="80" width="540" height="260" rx="10" fill="#FFFFFF" stroke="#191919" stroke-opacity="0.12" stroke-width="1.2"/>
    <text x="850" y="108" text-anchor="middle" font-size="13.5" font-weight="600" fill="#191919">Fine-grained (DeepSeekMoE style)</text>
    <text x="850" y="126" text-anchor="middle" font-size="10" fill="#6B6B6B">same total width split into N = 64, top-16 — same 25% active</text>

    <!-- grid of 8x2=16 small boxes, 4 highlighted -->
    <g>
      <!-- row 1 -->
      <rect x="620" y="150" width="42" height="42" rx="4" fill="#D97757" stroke="#191919" stroke-width="1"/>
      <rect x="668" y="150" width="42" height="42" rx="4" fill="#F3ECE2" stroke="#191919" stroke-width="1"/>
      <rect x="716" y="150" width="42" height="42" rx="4" fill="#D97757" stroke="#191919" stroke-width="1"/>
      <rect x="764" y="150" width="42" height="42" rx="4" fill="#F3ECE2" stroke="#191919" stroke-width="1"/>
      <rect x="812" y="150" width="42" height="42" rx="4" fill="#F3ECE2" stroke="#191919" stroke-width="1"/>
      <rect x="860" y="150" width="42" height="42" rx="4" fill="#D97757" stroke="#191919" stroke-width="1"/>
      <rect x="908" y="150" width="42" height="42" rx="4" fill="#F3ECE2" stroke="#191919" stroke-width="1"/>
      <rect x="956" y="150" width="42" height="42" rx="4" fill="#F3ECE2" stroke="#191919" stroke-width="1"/>
      <!-- row 2 -->
      <rect x="620" y="200" width="42" height="42" rx="4" fill="#F3ECE2" stroke="#191919" stroke-width="1"/>
      <rect x="668" y="200" width="42" height="42" rx="4" fill="#D97757" stroke="#191919" stroke-width="1"/>
      <rect x="716" y="200" width="42" height="42" rx="4" fill="#F3ECE2" stroke="#191919" stroke-width="1"/>
      <rect x="764" y="200" width="42" height="42" rx="4" fill="#F3ECE2" stroke="#191919" stroke-width="1"/>
      <rect x="812" y="200" width="42" height="42" rx="4" fill="#F3ECE2" stroke="#191919" stroke-width="1"/>
      <rect x="860" y="200" width="42" height="42" rx="4" fill="#F3ECE2" stroke="#191919" stroke-width="1"/>
      <rect x="908" y="200" width="42" height="42" rx="4" fill="#F3ECE2" stroke="#191919" stroke-width="1"/>
      <rect x="956" y="200" width="42" height="42" rx="4" fill="#F3ECE2" stroke="#191919" stroke-width="1"/>
    </g>
    <text x="850" y="270" text-anchor="middle" font-size="10" fill="#6B6B6B">(16 of 64 shown — each expert is 1/8 the width)</text>
    <text x="850" y="300" text-anchor="middle" font-size="10.5" fill="#191919" font-weight="600">16 of 64 active → millions of possible combinations</text>
    <text x="850" y="317" text-anchor="middle" font-size="9.5" fill="#6B6B6B">far more combinatorial flexibility per token, same compute cost</text>
  </g>

  <!-- shared expert note -->
  <rect x="40" y="350" width="1080" height="0" fill="none"/>
</svg>
