<svg viewBox="0 0 1400 340" xmlns="http://www.w3.org/2000/svg" font-family="Inter, -apple-system, sans-serif">
  <rect x="0" y="0" width="1400" height="340" fill="#F4F3EF"/>
  <text x="700" y="32" text-anchor="middle" font-size="22" font-weight="600" fill="#191919">Three Ways to Assign Tokens to Experts</text>
  <text x="700" y="54" text-anchor="middle" font-size="12.5" fill="#6B6B6B">same 8 tokens, same 4 experts (orange = code tokens, gray = text tokens)</text>

  <!-- ================= Panel 1: Hash (x=20) ================= -->
  <g>
    <rect x="20" y="76" width="440" height="242" rx="14" fill="#FFFFFF" stroke="#191919" stroke-opacity="0.12" stroke-width="1.2"/>
    <text x="240" y="104" text-anchor="middle" font-size="17" font-weight="600" fill="#191919">Hash routing</text>
    <text x="240" y="124" text-anchor="middle" font-size="11.5" fill="#6B6B6B">hash(id) mod N, fixed, ignores content</text>

    <circle cx="50" cy="162" r="8" fill="#D97757"/>
    <circle cx="104" cy="162" r="8" fill="#6B6B6B"/>
    <circle cx="158" cy="162" r="8" fill="#D97757"/>
    <circle cx="212" cy="162" r="8" fill="#6B6B6B"/>
    <circle cx="266" cy="162" r="8" fill="#D97757"/>
    <circle cx="320" cy="162" r="8" fill="#6B6B6B"/>
    <circle cx="374" cy="162" r="8" fill="#D97757"/>
    <circle cx="428" cy="162" r="8" fill="#6B6B6B"/>

    <rect x="40" y="196" width="90" height="52" rx="7" fill="#F3ECE2" stroke="#191919" stroke-width="1.2"/>
    <rect x="143" y="196" width="90" height="52" rx="7" fill="#F3ECE2" stroke="#191919" stroke-width="1.2"/>
    <rect x="246" y="196" width="90" height="52" rx="7" fill="#F3ECE2" stroke="#191919" stroke-width="1.2"/>
    <rect x="349" y="196" width="90" height="52" rx="7" fill="#F3ECE2" stroke="#191919" stroke-width="1.2"/>
    <text x="85" y="228" text-anchor="middle" font-size="15" font-weight="600" fill="#191919">E1</text>
    <text x="188" y="228" text-anchor="middle" font-size="15" font-weight="600" fill="#191919">E2</text>
    <text x="291" y="228" text-anchor="middle" font-size="15" font-weight="600" fill="#191919">E3</text>
    <text x="394" y="228" text-anchor="middle" font-size="15" font-weight="600" fill="#191919">E4</text>

    <g stroke="#191919" stroke-opacity="0.35" stroke-width="1.3">
      <line x1="50" y1="170" x2="85" y2="196"/>
      <line x1="104" y1="170" x2="188" y2="196"/>
      <line x1="158" y1="170" x2="291" y2="196"/>
      <line x1="212" y1="170" x2="394" y2="196"/>
      <line x1="266" y1="170" x2="85" y2="196"/>
      <line x1="320" y1="170" x2="188" y2="196"/>
      <line x1="374" y1="170" x2="291" y2="196"/>
      <line x1="428" y1="170" x2="394" y2="196"/>
    </g>

    <text x="240" y="278" text-anchor="middle" font-size="14.5" font-weight="600" fill="#191919">2 tokens per expert, always</text>
    <text x="240" y="298" text-anchor="middle" font-size="12" fill="#6B6B6B">perfect balance, zero content awareness</text>
  </g>

  <!-- ================= Panel 2: Learned (x=480) ================= -->
  <g>
    <rect x="480" y="76" width="440" height="242" rx="14" fill="#FFFFFF" stroke="#191919" stroke-opacity="0.12" stroke-width="1.2"/>
    <text x="700" y="104" text-anchor="middle" font-size="17" font-weight="600" fill="#191919">Learned routing</text>
    <text x="700" y="124" text-anchor="middle" font-size="11.5" fill="#6B6B6B">a gradient-trained gate scores each expert</text>

    <circle cx="510" cy="162" r="8" fill="#D97757"/>
    <circle cx="564" cy="162" r="8" fill="#D97757"/>
    <circle cx="618" cy="162" r="8" fill="#D97757"/>
    <circle cx="672" cy="162" r="8" fill="#D97757"/>
    <circle cx="726" cy="162" r="8" fill="#D97757"/>
    <circle cx="780" cy="162" r="8" fill="#6B6B6B"/>
    <circle cx="834" cy="162" r="8" fill="#6B6B6B"/>
    <circle cx="888" cy="162" r="8" fill="#6B6B6B"/>

    <rect x="500" y="196" width="90" height="52" rx="7" fill="#F3ECE2" stroke="#191919" stroke-width="1.2"/>
    <rect x="603" y="196" width="90" height="52" rx="7" fill="#F3ECE2" stroke="#191919" stroke-width="1.2"/>
    <rect x="706" y="196" width="90" height="52" rx="7" fill="#F3ECE2" stroke="#191919" stroke-width="1.2"/>
    <rect x="809" y="196" width="90" height="52" rx="7" fill="none" stroke="#191919" stroke-width="1.2" stroke-dasharray="4 4"/>
    <text x="545" y="228" text-anchor="middle" font-size="15" font-weight="600" fill="#191919">E1</text>
    <text x="648" y="228" text-anchor="middle" font-size="15" font-weight="600" fill="#191919">E2</text>
    <text x="751" y="228" text-anchor="middle" font-size="15" font-weight="600" fill="#191919">E3</text>
    <text x="854" y="228" text-anchor="middle" font-size="15" font-weight="600" fill="#6B6B6B">E4</text>

    <g stroke="#D97757" stroke-opacity="0.55" stroke-width="1.3">
      <line x1="510" y1="170" x2="545" y2="196"/>
      <line x1="564" y1="170" x2="545" y2="196"/>
      <line x1="618" y1="170" x2="648" y2="196"/>
      <line x1="672" y1="170" x2="648" y2="196"/>
      <line x1="726" y1="170" x2="648" y2="196"/>
    </g>
    <g stroke="#6B6B6B" stroke-opacity="0.55" stroke-width="1.3">
      <line x1="780" y1="170" x2="751" y2="196"/>
      <line x1="834" y1="170" x2="751" y2="196"/>
      <line x1="888" y1="170" x2="751" y2="196"/>
    </g>

    <text x="700" y="278" text-anchor="middle" font-size="14.5" font-weight="600" fill="#191919">0, 2, 6, 0 tokens per expert</text>
    <text x="700" y="298" text-anchor="middle" font-size="12" fill="#6B6B6B">content-aware, but can collapse: E4 starves</text>
  </g>

  <!-- ================= Panel 3: Sinkhorn (x=940) ================= -->
  <g>
    <rect x="940" y="76" width="440" height="242" rx="14" fill="#FFFFFF" stroke="#191919" stroke-opacity="0.12" stroke-width="1.2"/>
    <text x="1160" y="104" text-anchor="middle" font-size="17" font-weight="600" fill="#191919">Sinkhorn routing</text>
    <text x="1160" y="124" text-anchor="middle" font-size="11.5" fill="#6B6B6B">iterative bi-normalization before top-k</text>

    <circle cx="970" cy="162" r="8" fill="#D97757"/>
    <circle cx="1024" cy="162" r="8" fill="#D97757"/>
    <circle cx="1078" cy="162" r="8" fill="#D97757"/>
    <circle cx="1132" cy="162" r="8" fill="#D97757"/>
    <circle cx="1186" cy="162" r="8" fill="#D97757"/>
    <circle cx="1240" cy="162" r="8" fill="#6B6B6B"/>
    <circle cx="1294" cy="162" r="8" fill="#6B6B6B"/>
    <circle cx="1348" cy="162" r="8" fill="#6B6B6B"/>

    <rect x="960" y="196" width="90" height="52" rx="7" fill="#F3ECE2" stroke="#191919" stroke-width="1.2"/>
    <rect x="1063" y="196" width="90" height="52" rx="7" fill="#F3ECE2" stroke="#191919" stroke-width="1.2"/>
    <rect x="1166" y="196" width="90" height="52" rx="7" fill="#F3ECE2" stroke="#191919" stroke-width="1.2"/>
    <rect x="1269" y="196" width="90" height="52" rx="7" fill="#F3ECE2" stroke="#191919" stroke-width="1.2"/>
    <text x="1005" y="228" text-anchor="middle" font-size="15" font-weight="600" fill="#191919">E1</text>
    <text x="1108" y="228" text-anchor="middle" font-size="15" font-weight="600" fill="#191919">E2</text>
    <text x="1211" y="228" text-anchor="middle" font-size="15" font-weight="600" fill="#191919">E3</text>
    <text x="1314" y="228" text-anchor="middle" font-size="15" font-weight="600" fill="#191919">E4</text>

    <g stroke="#D97757" stroke-opacity="0.55" stroke-width="1.3">
      <line x1="970" y1="170" x2="1005" y2="196"/>
      <line x1="1024" y1="170" x2="1005" y2="196"/>
      <line x1="1078" y1="170" x2="1108" y2="196"/>
      <line x1="1132" y1="170" x2="1211" y2="196"/>
      <line x1="1186" y1="170" x2="1314" y2="196"/>
    </g>
    <g stroke="#6B6B6B" stroke-opacity="0.55" stroke-width="1.3">
      <line x1="1240" y1="170" x2="1108" y2="196"/>
      <line x1="1294" y1="170" x2="1211" y2="196"/>
      <line x1="1348" y1="170" x2="1314" y2="196"/>
    </g>

    <text x="1160" y="278" text-anchor="middle" font-size="14.5" font-weight="600" fill="#191919">2 tokens per expert, always</text>
    <text x="1160" y="298" text-anchor="middle" font-size="12" fill="#6B6B6B">balanced like hash, but content still nudges it</text>
  </g>
</svg>
