<svg viewBox="0 0 760 920" xmlns="http://www.w3.org/2000/svg" font-family="Inter, -apple-system, sans-serif">
  <rect x="0" y="0" width="760" height="920" fill="#F4F3EF"/>
  <text x="380" y="36" text-anchor="middle" font-size="22" font-weight="600" fill="#191919">Three Ways to Assign Tokens to Experts</text>
  <text x="380" y="60" text-anchor="middle" font-size="13" fill="#6B6B6B">same 8 tokens, same 4 experts (orange = code tokens, gray = text tokens)</text>

  <!-- ================= Panel 1: Hash (top=80) ================= -->
  <g>
    <rect x="20" y="80" width="720" height="260" rx="14" fill="#FFFFFF" stroke="#191919" stroke-opacity="0.12" stroke-width="1.2"/>
    <text x="380" y="104" text-anchor="middle" font-size="17" font-weight="600" fill="#191919">Hash routing</text>
    <text x="380" y="124" text-anchor="middle" font-size="12.5" fill="#6B6B6B">hash(token id) mod N, fixed, ignores content</text>

    <!-- tokens -->
    <circle cx="60" cy="164" r="10" fill="#D97757"/>
    <circle cx="151" cy="164" r="10" fill="#6B6B6B"/>
    <circle cx="243" cy="164" r="10" fill="#D97757"/>
    <circle cx="334" cy="164" r="10" fill="#6B6B6B"/>
    <circle cx="426" cy="164" r="10" fill="#D97757"/>
    <circle cx="517" cy="164" r="10" fill="#6B6B6B"/>
    <circle cx="609" cy="164" r="10" fill="#D97757"/>
    <circle cx="700" cy="164" r="10" fill="#6B6B6B"/>

    <!-- experts -->
    <rect x="60" y="220" width="130" height="50" rx="8" fill="#F3ECE2" stroke="#191919" stroke-width="1.2"/>
    <rect x="230" y="220" width="130" height="50" rx="8" fill="#F3ECE2" stroke="#191919" stroke-width="1.2"/>
    <rect x="400" y="220" width="130" height="50" rx="8" fill="#F3ECE2" stroke="#191919" stroke-width="1.2"/>
    <rect x="570" y="220" width="130" height="50" rx="8" fill="#F3ECE2" stroke="#191919" stroke-width="1.2"/>
    <text x="125" y="250" text-anchor="middle" font-size="16" font-weight="600" fill="#191919">E1</text>
    <text x="295" y="250" text-anchor="middle" font-size="16" font-weight="600" fill="#191919">E2</text>
    <text x="465" y="250" text-anchor="middle" font-size="16" font-weight="600" fill="#191919">E3</text>
    <text x="635" y="250" text-anchor="middle" font-size="16" font-weight="600" fill="#191919">E4</text>

    <!-- fixed round-robin connections -->
    <g stroke="#191919" stroke-opacity="0.35" stroke-width="1.4">
      <line x1="60" y1="174" x2="125" y2="220"/>
      <line x1="151" y1="174" x2="295" y2="220"/>
      <line x1="243" y1="174" x2="465" y2="220"/>
      <line x1="334" y1="174" x2="635" y2="220"/>
      <line x1="426" y1="174" x2="125" y2="220"/>
      <line x1="517" y1="174" x2="295" y2="220"/>
      <line x1="609" y1="174" x2="465" y2="220"/>
      <line x1="700" y1="174" x2="635" y2="220"/>
    </g>

    <text x="380" y="296" text-anchor="middle" font-size="16" font-weight="600" fill="#191919">2 tokens per expert, always</text>
    <text x="380" y="316" text-anchor="middle" font-size="13" fill="#6B6B6B">perfect balance, zero content awareness</text>
  </g>

  <!-- ================= Panel 2: Learned (top=360) ================= -->
  <g>
    <rect x="20" y="360" width="720" height="260" rx="14" fill="#FFFFFF" stroke="#191919" stroke-opacity="0.12" stroke-width="1.2"/>
    <text x="380" y="384" text-anchor="middle" font-size="17" font-weight="600" fill="#191919">Learned routing</text>
    <text x="380" y="404" text-anchor="middle" font-size="12.5" fill="#6B6B6B">a gradient-trained gate scores each expert</text>

    <circle cx="60" cy="444" r="10" fill="#D97757"/>
    <circle cx="151" cy="444" r="10" fill="#D97757"/>
    <circle cx="243" cy="444" r="10" fill="#D97757"/>
    <circle cx="334" cy="444" r="10" fill="#D97757"/>
    <circle cx="426" cy="444" r="10" fill="#D97757"/>
    <circle cx="517" cy="444" r="10" fill="#6B6B6B"/>
    <circle cx="609" cy="444" r="10" fill="#6B6B6B"/>
    <circle cx="700" cy="444" r="10" fill="#6B6B6B"/>

    <rect x="60" y="500" width="130" height="50" rx="8" fill="#F3ECE2" stroke="#191919" stroke-width="1.2"/>
    <rect x="230" y="500" width="130" height="50" rx="8" fill="#F3ECE2" stroke="#191919" stroke-width="1.2"/>
    <rect x="400" y="500" width="130" height="50" rx="8" fill="#F3ECE2" stroke="#191919" stroke-width="1.2"/>
    <rect x="570" y="500" width="130" height="50" rx="8" fill="none" stroke="#191919" stroke-width="1.2" stroke-dasharray="4 4"/>
    <text x="125" y="530" text-anchor="middle" font-size="16" font-weight="600" fill="#191919">E1</text>
    <text x="295" y="530" text-anchor="middle" font-size="16" font-weight="600" fill="#191919">E2</text>
    <text x="465" y="530" text-anchor="middle" font-size="16" font-weight="600" fill="#191919">E3</text>
    <text x="635" y="530" text-anchor="middle" font-size="16" font-weight="600" fill="#6B6B6B">E4</text>

    <!-- content-driven, clustered, uneven: E4 idle -->
    <g stroke="#D97757" stroke-opacity="0.55" stroke-width="1.4">
      <line x1="60" y1="454" x2="125" y2="500"/>
      <line x1="151" y1="454" x2="125" y2="500"/>
      <line x1="243" y1="454" x2="295" y2="500"/>
      <line x1="334" y1="454" x2="295" y2="500"/>
      <line x1="426" y1="454" x2="295" y2="500"/>
    </g>
    <g stroke="#6B6B6B" stroke-opacity="0.55" stroke-width="1.4">
      <line x1="517" y1="454" x2="465" y2="500"/>
      <line x1="609" y1="454" x2="465" y2="500"/>
      <line x1="700" y1="454" x2="465" y2="500"/>
    </g>

    <text x="380" y="576" text-anchor="middle" font-size="16" font-weight="600" fill="#191919">0, 2, 6, 0 tokens per expert</text>
    <text x="380" y="596" text-anchor="middle" font-size="13" fill="#6B6B6B">content-aware, but can collapse: E4 starves</text>
  </g>

  <!-- ================= Panel 3: Sinkhorn (top=640) ================= -->
  <g>
    <rect x="20" y="640" width="720" height="260" rx="14" fill="#FFFFFF" stroke="#191919" stroke-opacity="0.12" stroke-width="1.2"/>
    <text x="380" y="664" text-anchor="middle" font-size="17" font-weight="600" fill="#191919">Sinkhorn routing</text>
    <text x="380" y="684" text-anchor="middle" font-size="12.5" fill="#6B6B6B">iterative bi-normalization before top-k</text>

    <circle cx="60" cy="724" r="10" fill="#D97757"/>
    <circle cx="151" cy="724" r="10" fill="#D97757"/>
    <circle cx="243" cy="724" r="10" fill="#D97757"/>
    <circle cx="334" cy="724" r="10" fill="#D97757"/>
    <circle cx="426" cy="724" r="10" fill="#D97757"/>
    <circle cx="517" cy="724" r="10" fill="#6B6B6B"/>
    <circle cx="609" cy="724" r="10" fill="#6B6B6B"/>
    <circle cx="700" cy="724" r="10" fill="#6B6B6B"/>

    <rect x="60" y="780" width="130" height="50" rx="8" fill="#F3ECE2" stroke="#191919" stroke-width="1.2"/>
    <rect x="230" y="780" width="130" height="50" rx="8" fill="#F3ECE2" stroke="#191919" stroke-width="1.2"/>
    <rect x="400" y="780" width="130" height="50" rx="8" fill="#F3ECE2" stroke="#191919" stroke-width="1.2"/>
    <rect x="570" y="780" width="130" height="50" rx="8" fill="#F3ECE2" stroke="#191919" stroke-width="1.2"/>
    <text x="125" y="810" text-anchor="middle" font-size="16" font-weight="600" fill="#191919">E1</text>
    <text x="295" y="810" text-anchor="middle" font-size="16" font-weight="600" fill="#191919">E2</text>
    <text x="465" y="810" text-anchor="middle" font-size="16" font-weight="600" fill="#191919">E3</text>
    <text x="635" y="810" text-anchor="middle" font-size="16" font-weight="600" fill="#191919">E4</text>

    <!-- forced-even but still content-correlated -->
    <g stroke="#D97757" stroke-opacity="0.55" stroke-width="1.4">
      <line x1="60" y1="734" x2="125" y2="780"/>
      <line x1="151" y1="734" x2="125" y2="780"/>
      <line x1="243" y1="734" x2="295" y2="780"/>
      <line x1="334" y1="734" x2="465" y2="780"/>
      <line x1="426" y1="734" x2="635" y2="780"/>
    </g>
    <g stroke="#6B6B6B" stroke-opacity="0.55" stroke-width="1.4">
      <line x1="517" y1="734" x2="295" y2="780"/>
      <line x1="609" y1="734" x2="465" y2="780"/>
      <line x1="700" y1="734" x2="635" y2="780"/>
    </g>

    <text x="380" y="856" text-anchor="middle" font-size="16" font-weight="600" fill="#191919">2 tokens per expert, always</text>
    <text x="380" y="876" text-anchor="middle" font-size="13" fill="#6B6B6B">balanced like hash, but content still nudges assignment</text>
  </g>
</svg>
