<svg viewBox="0 0 1650 500" xmlns="http://www.w3.org/2000/svg" font-family="Inter, -apple-system, sans-serif">
  <rect x="0" y="0" width="1650" height="500" fill="#F4F3EF"/>

  <line x1="1150" y1="20" x2="1150" y2="480" stroke="#191919" stroke-opacity="0.15" stroke-dasharray="5 5"/>

  <!-- transition arrow: the MoE block on the left becomes the compressed core on the right -->
  <line x1="1000" y1="255" x2="1290" y2="255" stroke="#191919" stroke-width="3.5"/>
  <polygon points="1330,255 1290,240 1290,270" fill="#191919"/>

  <!-- ================= Left panel: MoE (same structure as section 1) ================= -->
  <text x="510" y="24" text-anchor="middle" font-size="16" font-weight="600" fill="#191919">MoE</text>

  <rect x="460" y="40" width="100" height="42" rx="8" fill="#191919"/>
  <text x="510" y="66" text-anchor="middle" font-size="14" fill="#F4F3EF">token x</text>

  <line x1="510" y1="82" x2="510" y2="106" stroke="#191919" stroke-opacity="0.4" stroke-width="1.6"/>

  <line x1="510" y1="106" x2="330" y2="106" stroke="#191919" stroke-opacity="0.4" stroke-width="1.6"/>
  <line x1="330" y1="106" x2="330" y2="124" stroke="#191919" stroke-opacity="0.4" stroke-width="1.6"/>
  <polygon points="330,132 324,122 336,122" fill="#191919" fill-opacity="0.4"/>

  <line x1="510" y1="106" x2="900" y2="106" stroke="#191919" stroke-opacity="0.4" stroke-width="1.6"/>
  <line x1="900" y1="106" x2="900" y2="196" stroke="#191919" stroke-opacity="0.4" stroke-width="1.6"/>
  <polygon points="900,204 894,194 906,194" fill="#191919" fill-opacity="0.4"/>

  <rect x="260" y="132" width="140" height="46" rx="8" fill="#F3ECE2" stroke="#191919" stroke-width="1.2"/>
  <text x="330" y="159" text-anchor="middle" font-size="15" font-weight="600" fill="#191919">router</text>

  <line x1="330" y1="178" x2="330" y2="204" stroke="#191919" stroke-opacity="0.35" stroke-width="1.2"/>

  <g stroke="#191919" stroke-width="1" fill="#FFFFFF" fill-opacity="0.4">
    <rect x="75" y="204" width="90" height="48" rx="6"/>
    <rect x="180" y="204" width="90" height="48" rx="6"/>
    <rect x="390" y="204" width="90" height="48" rx="6"/>
    <rect x="495" y="204" width="90" height="48" rx="6"/>
    <rect x="705" y="204" width="90" height="48" rx="6"/>
  </g>

  <rect x="285" y="204" width="90" height="48" rx="6" fill="#D97757" stroke="#191919" stroke-width="1.6"/>
  <rect x="600" y="204" width="90" height="48" rx="6" fill="#D97757" stroke="#191919" stroke-width="1.6"/>

  <rect x="855" y="204" width="90" height="48" rx="6" fill="#8DA399" stroke="#191919" stroke-width="1.2"/>
  <text x="900" y="232" text-anchor="middle" font-size="12.5" font-weight="600" fill="#F4F3EF">shared</text>

  <line x1="330" y1="252" x2="330" y2="300" stroke="#191919" stroke-width="1.6"/>
  <line x1="330" y1="300" x2="510" y2="300" stroke="#191919" stroke-width="1.6"/>
  <line x1="645" y1="252" x2="645" y2="300" stroke="#191919" stroke-width="1.6"/>
  <line x1="645" y1="300" x2="510" y2="300" stroke="#191919" stroke-width="1.6"/>
  <line x1="510" y1="300" x2="510" y2="322" stroke="#191919" stroke-width="1.6"/>
  <polygon points="510,330 502,318 518,318" fill="#191919"/>

  <line x1="900" y1="252" x2="900" y2="362" stroke="#191919" stroke-width="1.6"/>
  <line x1="900" y1="362" x2="600" y2="362" stroke="#191919" stroke-width="1.6"/>
  <polygon points="590,362 600,356 600,368" fill="#191919"/>

  <rect x="430" y="330" width="160" height="48" rx="8" fill="#E3EBF2" stroke="#191919" stroke-width="1.2"/>
  <text x="510" y="359" text-anchor="middle" font-size="15" font-weight="600" fill="#191919">combine</text>

  <line x1="510" y1="378" x2="510" y2="420" stroke="#191919" stroke-width="1.6"/>
  <polygon points="510,428 502,418 518,418" fill="#191919"/>

  <rect x="460" y="428" width="100" height="42" rx="8" fill="#191919"/>
  <text x="510" y="454" text-anchor="middle" font-size="14" fill="#F4F3EF">output y</text>

  <!-- ================= Right panel: LatentMoE ================= -->
  <text x="1450" y="24" text-anchor="middle" font-size="16" font-weight="600" fill="#191919">LatentMoE</text>

  <rect x="1400" y="40" width="100" height="42" rx="8" fill="#191919"/>
  <text x="1450" y="66" text-anchor="middle" font-size="14" fill="#F4F3EF">token x</text>

  <line x1="1450" y1="82" x2="1450" y2="122" stroke="#191919" stroke-opacity="0.4" stroke-width="1.6"/>
  <polygon points="1450,130 1444,120 1456,120" fill="#191919" fill-opacity="0.4"/>

  <rect x="1350" y="130" width="200" height="56" rx="8" fill="#F3ECE2" stroke="#191919" stroke-width="1.2"/>
  <text x="1450" y="154" text-anchor="middle" font-size="13.5" font-weight="600" fill="#191919">down-project</text>
  <text x="1450" y="172" text-anchor="middle" font-size="11" fill="#6B6B6B">d → l</text>

  <line x1="1450" y1="186" x2="1450" y2="204" stroke="#191919" stroke-opacity="0.4" stroke-width="1.6"/>
  <polygon points="1450,212 1444,202 1456,202" fill="#191919" fill-opacity="0.4"/>

  <rect x="1330" y="212" width="240" height="110" rx="8" fill="#8DA399" fill-opacity="0.18" stroke="#8DA399" stroke-width="1.6" stroke-dasharray="5 4"/>
  <text x="1450" y="263" text-anchor="middle" font-size="18" font-weight="600" fill="#191919">MoE</text>
  <text x="1450" y="284" text-anchor="middle" font-size="11.5" fill="#6B6B6B">dim l</text>

  <line x1="1450" y1="322" x2="1450" y2="340" stroke="#191919" stroke-opacity="0.4" stroke-width="1.6"/>
  <polygon points="1450,348 1444,338 1456,338" fill="#191919" fill-opacity="0.4"/>

  <rect x="1350" y="348" width="200" height="56" rx="8" fill="#F3ECE2" stroke="#191919" stroke-width="1.2"/>
  <text x="1450" y="372" text-anchor="middle" font-size="13.5" font-weight="600" fill="#191919">up-project</text>
  <text x="1450" y="390" text-anchor="middle" font-size="11" fill="#6B6B6B">l → d</text>

  <line x1="1450" y1="404" x2="1450" y2="420" stroke="#191919" stroke-width="1.6"/>
  <polygon points="1450,428 1444,418 1456,418" fill="#191919"/>

  <rect x="1400" y="428" width="100" height="42" rx="8" fill="#191919"/>
  <text x="1450" y="454" text-anchor="middle" font-size="14" fill="#F4F3EF">output y</text>
</svg>
