<svg viewBox="0 0 1100 600" xmlns="http://www.w3.org/2000/svg" font-family="Inter, -apple-system, sans-serif">
  <rect x="0" y="0" width="1100" height="600" fill="#F4F3EF"/>
  <text x="550" y="38" text-anchor="middle" font-size="22" font-weight="600" fill="#191919">Multi-GPU Topology: Node vs Cluster</text>
  <text x="550" y="60" text-anchor="middle" font-size="13" fill="#6B6B6B">bandwidth drops roughly an order of magnitude at every hop outward</text>

  <!-- Node A box -->
  <rect x="50" y="90" width="420" height="390" rx="12" fill="#E6E4DD" stroke="#191919" stroke-width="1.5"/>
  <text x="260" y="118" text-anchor="middle" font-size="15" font-weight="600" fill="#191919">Node A (8 GPUs)</text>

  <!-- GPU Top / Bottom / Left / Right, all connections horizontal or vertical -->
  <rect x="220" y="140" width="80" height="55" rx="5" fill="#8DA399" stroke="#191919" stroke-width="1"/>
  <text x="260" y="172" text-anchor="middle" font-size="12.5" fill="#191919">GPU 0</text>

  <rect x="80" y="247" width="80" height="55" rx="5" fill="#8DA399" stroke="#191919" stroke-width="1"/>
  <text x="120" y="279" text-anchor="middle" font-size="12.5" fill="#191919">GPU 1</text>

  <rect x="220" y="252" width="80" height="45" rx="6" fill="#D97757" stroke="#191919" stroke-width="1"/>
  <text x="260" y="279" text-anchor="middle" font-size="12" fill="#F4F3EF">NVSwitch</text>

  <rect x="360" y="247" width="80" height="55" rx="5" fill="#8DA399" stroke="#191919" stroke-width="1"/>
  <text x="400" y="279" text-anchor="middle" font-size="12.5" fill="#191919">GPU 2</text>

  <rect x="220" y="355" width="80" height="55" rx="5" fill="#8DA399" stroke="#191919" stroke-width="1"/>
  <text x="260" y="387" text-anchor="middle" font-size="12.5" fill="#191919">GPU 3</text>

  <!-- straight horizontal/vertical connectors only -->
  <line x1="260" y1="195" x2="260" y2="252" stroke="#191919" stroke-width="1.4"/>
  <line x1="160" y1="274" x2="220" y2="274" stroke="#191919" stroke-width="1.4"/>
  <line x1="300" y1="274" x2="360" y2="274" stroke="#191919" stroke-width="1.4"/>
  <line x1="260" y1="297" x2="260" y2="355" stroke="#191919" stroke-width="1.4"/>

  <text x="260" y="435" text-anchor="middle" font-size="12" fill="#191919" font-weight="600">NVLink ~0.9–1.8 TB/s</text>
  <text x="260" y="455" text-anchor="middle" font-size="12" fill="#6B6B6B">(+4 more GPUs, all-to-all via NVSwitch)</text>

  <!-- Node B box -->
  <rect x="630" y="90" width="420" height="390" rx="12" fill="#E6E4DD" stroke="#191919" stroke-width="1.5"/>
  <text x="840" y="118" text-anchor="middle" font-size="15" font-weight="600" fill="#191919">Node B (8 GPUs)</text>

  <rect x="800" y="140" width="80" height="55" rx="5" fill="#8DA399" stroke="#191919" stroke-width="1"/>
  <text x="840" y="172" text-anchor="middle" font-size="12.5" fill="#191919">GPU 0</text>

  <rect x="660" y="247" width="80" height="55" rx="5" fill="#8DA399" stroke="#191919" stroke-width="1"/>
  <text x="700" y="279" text-anchor="middle" font-size="12.5" fill="#191919">GPU 1</text>

  <rect x="800" y="252" width="80" height="45" rx="6" fill="#D97757" stroke="#191919" stroke-width="1"/>
  <text x="840" y="279" text-anchor="middle" font-size="12" fill="#F4F3EF">NVSwitch</text>

  <rect x="940" y="247" width="80" height="55" rx="5" fill="#8DA399" stroke="#191919" stroke-width="1"/>
  <text x="980" y="279" text-anchor="middle" font-size="12.5" fill="#191919">GPU 2</text>

  <rect x="800" y="355" width="80" height="55" rx="5" fill="#8DA399" stroke="#191919" stroke-width="1"/>
  <text x="840" y="387" text-anchor="middle" font-size="12.5" fill="#191919">GPU 3</text>

  <line x1="840" y1="195" x2="840" y2="252" stroke="#191919" stroke-width="1.4"/>
  <line x1="740" y1="274" x2="800" y2="274" stroke="#191919" stroke-width="1.4"/>
  <line x1="880" y1="274" x2="940" y2="274" stroke="#191919" stroke-width="1.4"/>
  <line x1="840" y1="297" x2="840" y2="355" stroke="#191919" stroke-width="1.4"/>

  <text x="840" y="455" text-anchor="middle" font-size="12" fill="#6B6B6B">(+4 more GPUs, all-to-all via NVSwitch)</text>

  <!-- Inter-node link: plain cable + plug shapes, no arrows -->
  <rect x="528" y="267" width="44" height="14" rx="7" fill="#191919"/>
  <circle cx="528" cy="274" r="6" fill="#191919"/>
  <circle cx="572" cy="274" r="6" fill="#191919"/>
  <text x="550" y="225" text-anchor="middle" font-size="12" fill="#191919" font-weight="600">InfiniBand fabric</text>
  <text x="550" y="310" text-anchor="middle" font-size="11" fill="#191919">~50 GB/s per GPU</text>

  <text x="550" y="545" text-anchor="middle" font-size="13" fill="#191919" font-weight="600">Keep every-step tensor/pipeline traffic inside the fast NVLink domain (one node).</text>
</svg>
