<svg viewBox="0 0 1000 600" xmlns="http://www.w3.org/2000/svg" font-family="Inter, -apple-system, sans-serif">
  <rect x="0" y="0" width="1000" height="600" fill="#F4F3EF"/>
  <text x="500" y="38" text-anchor="middle" font-size="22" font-weight="600" fill="#191919">Multi-GPU Topology: Node vs Cluster</text>
  <text x="500" y="60" text-anchor="middle" font-size="13" fill="#6B6B6B">bandwidth drops roughly an order of magnitude at every hop outward</text>

  <!-- Node A box -->
  <rect x="50" y="90" width="420" height="380" rx="12" fill="#E6E4DD" stroke="#191919" stroke-width="1.5"/>
  <text x="260" y="120" text-anchor="middle" font-size="15" font-weight="600" fill="#191919">Node A (8 GPUs)</text>

  <rect x="220" y="255" width="80" height="45" rx="6" fill="#D97757" stroke="#191919" stroke-width="1"/>
  <text x="260" y="282" text-anchor="middle" font-size="12" fill="#F4F3EF">NVSwitch</text>

  <rect x="80" y="165" width="80" height="55" rx="5" fill="#8DA399" stroke="#191919" stroke-width="1"/>
  <text x="120" y="197" text-anchor="middle" font-size="12.5" fill="#191919">GPU 0</text>
  <rect x="360" y="165" width="80" height="55" rx="5" fill="#8DA399" stroke="#191919" stroke-width="1"/>
  <text x="400" y="197" text-anchor="middle" font-size="12.5" fill="#191919">GPU 1</text>
  <rect x="80" y="380" width="80" height="55" rx="5" fill="#8DA399" stroke="#191919" stroke-width="1"/>
  <text x="120" y="412" text-anchor="middle" font-size="12.5" fill="#191919">GPU 2</text>
  <rect x="360" y="380" width="80" height="55" rx="5" fill="#8DA399" stroke="#191919" stroke-width="1"/>
  <text x="400" y="412" text-anchor="middle" font-size="12.5" fill="#191919">GPU 3</text>
  <text x="260" y="450" text-anchor="middle" font-size="12" fill="#6B6B6B">(+4 more, all-to-all)</text>

  <line x1="245" y1="270" x2="140" y2="220" stroke="#191919" stroke-width="1.4"/>
  <line x1="300" y1="270" x2="410" y2="220" stroke="#191919" stroke-width="1.4"/>
  <line x1="245" y1="300" x2="140" y2="380" stroke="#191919" stroke-width="1.4"/>
  <line x1="300" y1="300" x2="410" y2="380" stroke="#191919" stroke-width="1.4"/>

  <text x="260" y="335" text-anchor="middle" font-size="12" fill="#191919" font-weight="600">NVLink ~0.9–1.8 TB/s</text>

  <!-- Node B box -->
  <rect x="530" y="90" width="420" height="380" rx="12" fill="#E6E4DD" stroke="#191919" stroke-width="1.5"/>
  <text x="740" y="120" text-anchor="middle" font-size="15" font-weight="600" fill="#191919">Node B (8 GPUs)</text>

  <rect x="700" y="255" width="80" height="45" rx="6" fill="#D97757" stroke="#191919" stroke-width="1"/>
  <text x="740" y="282" text-anchor="middle" font-size="12" fill="#F4F3EF">NVSwitch</text>

  <rect x="560" y="165" width="80" height="55" rx="5" fill="#8DA399" stroke="#191919" stroke-width="1"/>
  <text x="600" y="197" text-anchor="middle" font-size="12.5" fill="#191919">GPU 0</text>
  <rect x="840" y="165" width="80" height="55" rx="5" fill="#8DA399" stroke="#191919" stroke-width="1"/>
  <text x="880" y="197" text-anchor="middle" font-size="12.5" fill="#191919">GPU 1</text>
  <rect x="560" y="380" width="80" height="55" rx="5" fill="#8DA399" stroke="#191919" stroke-width="1"/>
  <text x="600" y="412" text-anchor="middle" font-size="12.5" fill="#191919">GPU 2</text>
  <rect x="840" y="380" width="80" height="55" rx="5" fill="#8DA399" stroke="#191919" stroke-width="1"/>
  <text x="880" y="412" text-anchor="middle" font-size="12.5" fill="#191919">GPU 3</text>
  <text x="740" y="450" text-anchor="middle" font-size="12" fill="#6B6B6B">(+4 more, all-to-all)</text>

  <line x1="725" y1="270" x2="620" y2="220" stroke="#191919" stroke-width="1.4"/>
  <line x1="780" y1="270" x2="890" y2="220" stroke="#191919" stroke-width="1.4"/>
  <line x1="725" y1="300" x2="620" y2="380" stroke="#191919" stroke-width="1.4"/>
  <line x1="780" y1="300" x2="890" y2="380" stroke="#191919" stroke-width="1.4"/>

  <!-- Inter-node link -->
  <defs>
    <marker id="arrow2" markerWidth="8" markerHeight="8" refX="4" refY="4" orient="auto">
      <path d="M0,0 L8,4 L0,8 z" fill="#191919"/>
    </marker>
    <marker id="arrow2rev" markerWidth="8" markerHeight="8" refX="4" refY="4" orient="auto-start-reverse">
      <path d="M0,0 L8,4 L0,8 z" fill="#191919"/>
    </marker>
  </defs>
  <line x1="478" y1="277" x2="522" y2="277" stroke="#191919" stroke-width="2" marker-end="url(#arrow2)" marker-start="url(#arrow2rev)"/>
  <text x="500" y="235" text-anchor="middle" font-size="12" fill="#191919" font-weight="600">InfiniBand</text>
  <text x="500" y="255" text-anchor="middle" font-size="11" fill="#191919">fabric</text>
  <text x="500" y="315" text-anchor="middle" font-size="11" fill="#191919">~50 GB/s</text>
  <text x="500" y="330" text-anchor="middle" font-size="11" fill="#191919">per GPU</text>

  <text x="500" y="545" text-anchor="middle" font-size="13" fill="#191919" font-weight="600">Keep every-step tensor/pipeline traffic inside the fast NVLink domain (one node).</text>
</svg>
