<svg viewBox="0 0 700 348" xmlns="http://www.w3.org/2000/svg" font-family="Inter, -apple-system, sans-serif"><rect width="700" height="348" fill="#F4F3EF"/>
<line x1="232.0" y1="28.0" x2="232.0" y2="300.0" stroke="#191919" stroke-opacity="0.12" stroke-width="1"/>
<text x="232.0" y="318.0" font-size="11" text-anchor="middle" fill="#5C5C5C">100B</text>
<line x1="323.1" y1="28.0" x2="323.1" y2="300.0" stroke="#191919" stroke-opacity="0.12" stroke-width="1"/>
<text x="323.1" y="318.0" font-size="11" text-anchor="middle" fill="#5C5C5C">1T</text>
<line x1="414.2" y1="28.0" x2="414.2" y2="300.0" stroke="#191919" stroke-opacity="0.12" stroke-width="1"/>
<text x="414.2" y="318.0" font-size="11" text-anchor="middle" fill="#5C5C5C">10T</text>
<line x1="505.3" y1="28.0" x2="505.3" y2="300.0" stroke="#191919" stroke-opacity="0.12" stroke-width="1"/>
<text x="505.3" y="318.0" font-size="11" text-anchor="middle" fill="#5C5C5C">100T</text>
<text x="396.0" y="342.0" font-size="12" text-anchor="middle" fill="#191919">tokens</text>
<rect x="232.0" y="32.0" width="308.0" height="17.0" fill="#6B8CAE" fill-opacity="0.85" rx="2"/>
<text x="220.0" y="45.0" font-size="11.5" text-anchor="end" fill="#191919">Common Crawl pool, DCLM</text>
<text x="548.0" y="45.0" font-size="11" text-anchor="start" fill="#5C5C5C">240.0T</text>
<rect x="232.0" y="62.0" width="206.6" height="17.0" fill="#D97757" fill-opacity="0.85" rx="2"/>
<text x="220.0" y="75.0" font-size="11.5" text-anchor="end" fill="#191919">FineWeb</text>
<text x="446.6" y="75.0" font-size="11" text-anchor="start" fill="#5C5C5C">18.5T</text>
<rect x="232.0" y="92.0" width="154.8" height="17.0" fill="#D97757" fill-opacity="0.85" rx="2"/>
<text x="220.0" y="105.0" font-size="11.5" text-anchor="end" fill="#191919">RefinedWeb</text>
<text x="394.8" y="105.0" font-size="11" text-anchor="start" fill="#5C5C5C">5.0T</text>
<rect x="232.0" y="122.0" width="145.0" height="17.0" fill="#D97757" fill-opacity="0.85" rx="2"/>
<text x="220.0" y="135.0" font-size="11.5" text-anchor="end" fill="#191919">OLMo 2 stage-1 mix</text>
<text x="385.0" y="135.0" font-size="11" text-anchor="start" fill="#5C5C5C">3.9T</text>
<rect x="232.0" y="152.0" width="134.6" height="17.0" fill="#D97757" fill-opacity="0.85" rx="2"/>
<text x="220.0" y="165.0" font-size="11.5" text-anchor="end" fill="#191919">Dolma</text>
<text x="374.6" y="165.0" font-size="11" text-anchor="start" fill="#5C5C5C">3.0T</text>
<rect x="232.0" y="182.0" width="101.5" height="17.0" fill="#8DA399" fill-opacity="0.85" rx="2"/>
<text x="220.0" y="195.0" font-size="11.5" text-anchor="end" fill="#191919">FineWeb-Edu</text>
<text x="341.5" y="195.0" font-size="11" text-anchor="start" fill="#5C5C5C">1.3T</text>
<rect x="232.0" y="212.0" width="98.7" height="17.0" fill="#D97757" fill-opacity="0.85" rx="2"/>
<text x="220.0" y="225.0" font-size="11.5" text-anchor="end" fill="#191919">RedPajama</text>
<text x="338.7" y="225.0" font-size="11" text-anchor="start" fill="#5C5C5C">1.2T</text>
<rect x="232.0" y="242.0" width="84.4" height="17.0" fill="#8DA399" fill-opacity="0.85" rx="2"/>
<text x="220.0" y="255.0" font-size="11.5" text-anchor="end" fill="#191919">Dolmino midtraining pool</text>
<text x="324.4" y="255.0" font-size="11" text-anchor="start" fill="#5C5C5C">843B</text>
<rect x="232.0" y="272.0" width="72.6" height="17.0" fill="#8DA399" fill-opacity="0.85" rx="2"/>
<text x="220.0" y="285.0" font-size="11.5" text-anchor="end" fill="#191919">SlimPajama</text>
<text x="312.6" y="285.0" font-size="11" text-anchor="start" fill="#5C5C5C">627B</text>
<text x="232.0" y="18.0" font-size="11" text-anchor="start" fill="#6B8CAE">raw pool</text>
<text x="298.0" y="18.0" font-size="11" text-anchor="start" fill="#D97757">filtered corpus</text>
<text x="404.0" y="18.0" font-size="11" text-anchor="start" fill="#8DA399">aggressively curated</text>
</svg>