<svg viewBox="0 0 700 276" xmlns="http://www.w3.org/2000/svg" font-family="Inter, -apple-system, sans-serif"><rect width="700" height="276" fill="#F4F3EF"/>
<line x1="66.0" y1="194.0" x2="430.0" y2="194.0" stroke="#191919" stroke-opacity="0.12" stroke-width="1"/>
<text x="57.0" y="198.0" font-size="11" text-anchor="end" fill="#5C5C5C">10.5%</text>
<line x1="66.0" y1="157.6" x2="430.0" y2="157.6" stroke="#191919" stroke-opacity="0.12" stroke-width="1"/>
<text x="57.0" y="161.6" font-size="11" text-anchor="end" fill="#5C5C5C">11.0%</text>
<line x1="66.0" y1="121.3" x2="430.0" y2="121.3" stroke="#191919" stroke-opacity="0.12" stroke-width="1"/>
<text x="57.0" y="125.3" font-size="11" text-anchor="end" fill="#5C5C5C">11.5%</text>
<line x1="66.0" y1="84.9" x2="430.0" y2="84.9" stroke="#191919" stroke-opacity="0.12" stroke-width="1"/>
<text x="57.0" y="88.9" font-size="11" text-anchor="end" fill="#5C5C5C">12.0%</text>
<line x1="66.0" y1="48.5" x2="430.0" y2="48.5" stroke="#191919" stroke-opacity="0.12" stroke-width="1"/>
<text x="57.0" y="52.5" font-size="11" text-anchor="end" fill="#5C5C5C">12.5%</text>
<text x="66.0" y="216.0" font-size="11" text-anchor="middle" fill="#5C5C5C">0</text>
<text x="146.9" y="216.0" font-size="11" text-anchor="middle" fill="#5C5C5C">200</text>
<text x="227.8" y="216.0" font-size="11" text-anchor="middle" fill="#5C5C5C">400</text>
<text x="308.7" y="216.0" font-size="11" text-anchor="middle" fill="#5C5C5C">600</text>
<text x="389.6" y="216.0" font-size="11" text-anchor="middle" fill="#5C5C5C">800</text>
<text x="248.0" y="240.0" font-size="12" text-anchor="middle" fill="#191919">proxy runs spent across five domain updates</text>
<text x="10.0" y="22.0" font-size="11" text-anchor="start" fill="#5C5C5C">improvement over the natural distribution</text>
<circle cx="402.5" cy="70.4" r="5.0" fill="#6B8CAE"/>
<text x="392.5" y="56.4" font-size="11.5" text-anchor="end" fill="#6B8CAE">full recomputation</text>
<circle cx="174.4" cy="128.5" r="5.0" fill="#A98467"/>
<text x="184.4" y="144.5" font-size="11.5" text-anchor="start" fill="#A98467">swarm reuse</text>
<circle cx="153.4" cy="114.0" r="5.0" fill="#8DA399"/>
<text x="163.4" y="102.0" font-size="11.5" text-anchor="start" fill="#8DA399">full mixture reuse</text>
<circle cx="176.0" cy="84.9" r="5.0" fill="#D97757"/>
<text x="186.0" y="72.9" font-size="11.5" text-anchor="start" fill="#D97757">partial mixture reuse</text>
</svg>