<svg viewBox="0 0 830 240" xmlns="http://www.w3.org/2000/svg" font-family="Inter, -apple-system, sans-serif">
<rect width="830" height="240" fill="#F4F3EF"/>
<text x="156" y="66" font-size="13" font-weight="600" text-anchor="end" fill="#191919">autoregressive</text>
<text x="156" y="82" font-size="10.5" text-anchor="end" fill="#5C5C5C">21 target passes</text>
<rect x="172" y="44" width="26" height="34" rx="4" fill="#8DA399" stroke="#191919" stroke-opacity="0.2"/>
<rect x="202" y="44" width="26" height="34" rx="4" fill="#8DA399" stroke="#191919" stroke-opacity="0.2"/>
<rect x="232" y="44" width="26" height="34" rx="4" fill="#8DA399" stroke="#191919" stroke-opacity="0.2"/>
<rect x="262" y="44" width="26" height="34" rx="4" fill="#8DA399" stroke="#191919" stroke-opacity="0.2"/>
<rect x="292" y="44" width="26" height="34" rx="4" fill="#8DA399" stroke="#191919" stroke-opacity="0.2"/>
<rect x="322" y="44" width="26" height="34" rx="4" fill="#8DA399" stroke="#191919" stroke-opacity="0.2"/>
<rect x="352" y="44" width="26" height="34" rx="4" fill="#8DA399" stroke="#191919" stroke-opacity="0.2"/>
<rect x="382" y="44" width="26" height="34" rx="4" fill="#8DA399" stroke="#191919" stroke-opacity="0.2"/>
<rect x="412" y="44" width="26" height="34" rx="4" fill="#8DA399" stroke="#191919" stroke-opacity="0.2"/>
<rect x="442" y="44" width="26" height="34" rx="4" fill="#8DA399" stroke="#191919" stroke-opacity="0.2"/>
<rect x="472" y="44" width="26" height="34" rx="4" fill="#8DA399" stroke="#191919" stroke-opacity="0.2"/>
<rect x="502" y="44" width="26" height="34" rx="4" fill="#8DA399" stroke="#191919" stroke-opacity="0.2"/>
<rect x="532" y="44" width="26" height="34" rx="4" fill="#8DA399" stroke="#191919" stroke-opacity="0.2"/>
<rect x="562" y="44" width="26" height="34" rx="4" fill="#8DA399" stroke="#191919" stroke-opacity="0.2"/>
<rect x="592" y="44" width="26" height="34" rx="4" fill="#8DA399" stroke="#191919" stroke-opacity="0.2"/>
<rect x="622" y="44" width="26" height="34" rx="4" fill="#8DA399" stroke="#191919" stroke-opacity="0.2"/>
<rect x="652" y="44" width="26" height="34" rx="4" fill="#8DA399" stroke="#191919" stroke-opacity="0.2"/>
<rect x="682" y="44" width="26" height="34" rx="4" fill="#8DA399" stroke="#191919" stroke-opacity="0.2"/>
<rect x="712" y="44" width="26" height="34" rx="4" fill="#8DA399" stroke="#191919" stroke-opacity="0.2"/>
<rect x="742" y="44" width="26" height="34" rx="4" fill="#8DA399" stroke="#191919" stroke-opacity="0.2"/>
<rect x="772" y="44" width="26" height="34" rx="4" fill="#8DA399" stroke="#191919" stroke-opacity="0.2"/>
<text x="156" y="154" font-size="13" font-weight="600" text-anchor="end" fill="#191919">speculative (γ=4)</text>
<text x="156" y="170" font-size="10.5" text-anchor="end" fill="#5C5C5C">6 target passes</text>
<rect x="172" y="132" width="146" height="34" rx="4" fill="#8DA399" stroke="#191919" stroke-opacity="0.2"/>
<text x="245.0" y="154" font-size="12.5" font-weight="700" text-anchor="middle" fill="#FFFFFF">5</text>
<line x1="320" y1="126" x2="320" y2="172" stroke="#191919" stroke-opacity="0.35" stroke-width="1.2"/>
<rect x="322" y="132" width="56" height="34" rx="4" fill="#8DA399" stroke="#191919" stroke-opacity="0.2"/>
<text x="350.0" y="154" font-size="12.5" font-weight="700" text-anchor="middle" fill="#FFFFFF">2</text>
<line x1="380" y1="126" x2="380" y2="172" stroke="#191919" stroke-opacity="0.35" stroke-width="1.2"/>
<rect x="382" y="132" width="26" height="34" rx="4" fill="#8DA399" stroke="#191919" stroke-opacity="0.2"/>
<text x="395.0" y="154" font-size="12.5" font-weight="700" text-anchor="middle" fill="#FFFFFF">1</text>
<line x1="410" y1="126" x2="410" y2="172" stroke="#191919" stroke-opacity="0.35" stroke-width="1.2"/>
<rect x="412" y="132" width="116" height="34" rx="4" fill="#8DA399" stroke="#191919" stroke-opacity="0.2"/>
<text x="470.0" y="154" font-size="12.5" font-weight="700" text-anchor="middle" fill="#FFFFFF">4</text>
<line x1="530" y1="126" x2="530" y2="172" stroke="#191919" stroke-opacity="0.35" stroke-width="1.2"/>
<rect x="532" y="132" width="116" height="34" rx="4" fill="#8DA399" stroke="#191919" stroke-opacity="0.2"/>
<text x="590.0" y="154" font-size="12.5" font-weight="700" text-anchor="middle" fill="#FFFFFF">4</text>
<line x1="650" y1="126" x2="650" y2="172" stroke="#191919" stroke-opacity="0.35" stroke-width="1.2"/>
<rect x="652" y="132" width="146" height="34" rx="4" fill="#8DA399" stroke="#191919" stroke-opacity="0.2"/>
<text x="725.0" y="154" font-size="12.5" font-weight="700" text-anchor="middle" fill="#FFFFFF">5</text>
<line x1="800" y1="126" x2="800" y2="172" stroke="#191919" stroke-opacity="0.35" stroke-width="1.2"/>
<text x="170" y="196" font-size="11.5" fill="#5C5C5C">each block is one target forward pass; the number is how many tokens it produced</text>
<text x="170" y="30" font-size="11.5" fill="#5C5C5C">same 21 tokens of output, measured in the only thing that costs real time</text>
</svg>