<svg viewBox="0 0 880 300" xmlns="http://www.w3.org/2000/svg" font-family="Inter, -apple-system, sans-serif">
<rect width="880" height="300" fill="#F4F3EF"/>
<rect x="99.0" y="99.0" width="23.916666666666668" height="126.0" rx="2.5" fill="#191919" fill-opacity="0.8"/>
<rect x="124.91666666666667" y="183.0" width="23.916666666666668" height="42.0" rx="2.5" fill="#D97757" fill-opacity="0.9"/>
<rect x="150.83333333333334" y="98.93679" width="23.916666666666668" height="126.06321" rx="2.5" fill="#8DA399" fill-opacity="0.9"/>
<text x="136.875" y="243" font-size="11" text-anchor="middle" fill="#5C5C5C">tok 0</text>
<rect x="192.75" y="132.6" width="23.916666666666668" height="92.4" rx="2.5" fill="#191919" fill-opacity="0.8"/>
<rect x="218.66666666666666" y="99.0" width="23.916666666666668" height="126.0" rx="2.5" fill="#D97757" fill-opacity="0.9"/>
<rect x="244.58333333333334" y="132.6105" width="23.916666666666668" height="92.3895" rx="2.5" fill="#8DA399" fill-opacity="0.9"/>
<text x="230.625" y="243" font-size="11" text-anchor="middle" fill="#5C5C5C">tok 1</text>
<rect x="286.5" y="157.8" width="23.916666666666668" height="67.2" rx="2.5" fill="#191919" fill-opacity="0.8"/>
<rect x="312.4166666666667" y="204.0" width="23.916666666666668" height="21.0" rx="2.5" fill="#D97757" fill-opacity="0.9"/>
<rect x="338.3333333333333" y="157.87727999999998" width="23.916666666666668" height="67.12272" rx="2.5" fill="#8DA399" fill-opacity="0.9"/>
<text x="324.375" y="243" font-size="11" text-anchor="middle" fill="#5C5C5C">tok 2</text>
<rect x="380.25" y="178.8" width="23.916666666666668" height="46.2" rx="2.5" fill="#191919" fill-opacity="0.8"/>
<rect x="406.1666666666667" y="141.0" width="23.916666666666668" height="84.0" rx="2.5" fill="#D97757" fill-opacity="0.9"/>
<rect x="432.0833333333333" y="178.79202" width="23.916666666666668" height="46.20798" rx="2.5" fill="#8DA399" fill-opacity="0.9"/>
<text x="418.125" y="243" font-size="11" text-anchor="middle" fill="#5C5C5C">tok 3</text>
<rect x="474.0" y="191.4" width="23.916666666666668" height="33.6" rx="2.5" fill="#191919" fill-opacity="0.8"/>
<rect x="499.9166666666667" y="204.0" width="23.916666666666668" height="21.0" rx="2.5" fill="#D97757" fill-opacity="0.9"/>
<rect x="525.8333333333334" y="191.45859000000002" width="23.916666666666668" height="33.54141" rx="2.5" fill="#8DA399" fill-opacity="0.9"/>
<text x="511.875" y="243" font-size="11" text-anchor="middle" fill="#5C5C5C">tok 4</text>
<rect x="567.75" y="199.8" width="23.916666666666668" height="25.2" rx="2.5" fill="#191919" fill-opacity="0.8"/>
<rect x="593.6666666666666" y="162.0" width="23.916666666666668" height="63.0" rx="2.5" fill="#D97757" fill-opacity="0.9"/>
<rect x="619.5833333333334" y="199.76451" width="23.916666666666668" height="25.23549" rx="2.5" fill="#8DA399" fill-opacity="0.9"/>
<text x="605.625" y="243" font-size="11" text-anchor="middle" fill="#5C5C5C">tok 5</text>
<rect x="661.5" y="208.2" width="23.916666666666668" height="16.8" rx="2.5" fill="#191919" fill-opacity="0.8"/>
<rect x="687.4166666666666" y="183.0" width="23.916666666666668" height="42.0" rx="2.5" fill="#D97757" fill-opacity="0.9"/>
<rect x="713.3333333333334" y="208.1139" width="23.916666666666668" height="16.8861" rx="2.5" fill="#8DA399" fill-opacity="0.9"/>
<text x="699.375" y="243" font-size="11" text-anchor="middle" fill="#5C5C5C">tok 6</text>
<rect x="755.25" y="212.4" width="23.916666666666668" height="12.6" rx="2.5" fill="#191919" fill-opacity="0.8"/>
<rect x="781.1666666666666" y="204.0" width="23.916666666666668" height="21.0" rx="2.5" fill="#D97757" fill-opacity="0.9"/>
<rect x="807.0833333333334" y="212.44641000000001" width="23.916666666666668" height="12.55359" rx="2.5" fill="#8DA399" fill-opacity="0.9"/>
<text x="793.125" y="243" font-size="11" text-anchor="middle" fill="#5C5C5C">tok 7</text>
<line x1="90" y1="225" x2="850" y2="225" stroke="#191919" stroke-opacity="0.35"/>
<text x="90" y="30" font-size="12.5" fill="#191919">2 million speculative steps with a deliberately bad draft</text>
<rect x="90" y="265" width="13" height="13" rx="3" fill="#191919" fill-opacity="0.9"/>
<text x="109" y="276" font-size="11.5" fill="#191919">target p</text>
<rect x="192.4" y="265" width="13" height="13" rx="3" fill="#D97757" fill-opacity="0.9"/>
<text x="211.4" y="276" font-size="11.5" fill="#191919">draft q  (TV from p = 0.34)</text>
<rect x="414.5" y="265" width="13" height="13" rx="3" fill="#8DA399" fill-opacity="0.9"/>
<text x="433.5" y="276" font-size="11.5" fill="#191919">what actually came out  (TV from p = 0.00046)</text>
</svg>