<svg viewBox="0 0 815 346" xmlns="http://www.w3.org/2000/svg" font-family="Inter, -apple-system, sans-serif">
<rect width="815" height="346" fill="#F4F3EF"/>
<text x="52" y="52" font-size="12.5" fill="#191919">a chain offers one guess per position, a tree offers several</text>
<line x1="214.0" y1="96.0" x2="140.0" y2="146.0" stroke="#191919" stroke-opacity="0.16" stroke-width="1.2"/>
<line x1="214.0" y1="96.0" x2="288.0" y2="146.0" stroke="#D97757" stroke-opacity="1" stroke-width="2.6"/>
<line x1="140.0" y1="146.0" x2="102.0" y2="196.0" stroke="#191919" stroke-opacity="0.16" stroke-width="1.2"/>
<line x1="140.0" y1="146.0" x2="178.0" y2="196.0" stroke="#191919" stroke-opacity="0.16" stroke-width="1.2"/>
<line x1="288.0" y1="146.0" x2="250.0" y2="196.0" stroke="#D97757" stroke-opacity="1" stroke-width="2.6"/>
<line x1="288.0" y1="146.0" x2="326.0" y2="196.0" stroke="#191919" stroke-opacity="0.16" stroke-width="1.2"/>
<line x1="102.0" y1="196.0" x2="81.0" y2="246.0" stroke="#191919" stroke-opacity="0.16" stroke-width="1.2"/>
<line x1="102.0" y1="196.0" x2="123.0" y2="246.0" stroke="#191919" stroke-opacity="0.16" stroke-width="1.2"/>
<line x1="178.0" y1="196.0" x2="157.0" y2="246.0" stroke="#191919" stroke-opacity="0.16" stroke-width="1.2"/>
<line x1="178.0" y1="196.0" x2="199.0" y2="246.0" stroke="#191919" stroke-opacity="0.16" stroke-width="1.2"/>
<line x1="250.0" y1="196.0" x2="229.0" y2="246.0" stroke="#D97757" stroke-opacity="1" stroke-width="2.6"/>
<line x1="250.0" y1="196.0" x2="271.0" y2="246.0" stroke="#191919" stroke-opacity="0.16" stroke-width="1.2"/>
<line x1="326.0" y1="196.0" x2="305.0" y2="246.0" stroke="#191919" stroke-opacity="0.16" stroke-width="1.2"/>
<line x1="326.0" y1="196.0" x2="347.0" y2="246.0" stroke="#191919" stroke-opacity="0.16" stroke-width="1.2"/>
<circle cx="214.0" cy="96.0" r="8.5" fill="#D97757" stroke="#D97757" stroke-opacity="1" stroke-width="2"/>
<circle cx="140.0" cy="146.0" r="6.5" fill="#FFFFFF" stroke="#191919" stroke-opacity="0.25" stroke-width="1"/>
<circle cx="288.0" cy="146.0" r="8.5" fill="#D97757" stroke="#D97757" stroke-opacity="1" stroke-width="2"/>
<circle cx="102.0" cy="196.0" r="6.5" fill="#FFFFFF" stroke="#191919" stroke-opacity="0.25" stroke-width="1"/>
<circle cx="178.0" cy="196.0" r="6.5" fill="#FFFFFF" stroke="#191919" stroke-opacity="0.25" stroke-width="1"/>
<circle cx="250.0" cy="196.0" r="8.5" fill="#D97757" stroke="#D97757" stroke-opacity="1" stroke-width="2"/>
<circle cx="326.0" cy="196.0" r="6.5" fill="#FFFFFF" stroke="#191919" stroke-opacity="0.25" stroke-width="1"/>
<circle cx="81.0" cy="246.0" r="6.5" fill="#FFFFFF" stroke="#191919" stroke-opacity="0.25" stroke-width="1"/>
<circle cx="123.0" cy="246.0" r="6.5" fill="#FFFFFF" stroke="#191919" stroke-opacity="0.25" stroke-width="1"/>
<circle cx="157.0" cy="246.0" r="6.5" fill="#FFFFFF" stroke="#191919" stroke-opacity="0.25" stroke-width="1"/>
<circle cx="199.0" cy="246.0" r="6.5" fill="#FFFFFF" stroke="#191919" stroke-opacity="0.25" stroke-width="1"/>
<circle cx="229.0" cy="246.0" r="8.5" fill="#D97757" stroke="#D97757" stroke-opacity="1" stroke-width="2"/>
<circle cx="271.0" cy="246.0" r="6.5" fill="#FFFFFF" stroke="#191919" stroke-opacity="0.25" stroke-width="1"/>
<circle cx="305.0" cy="246.0" r="6.5" fill="#FFFFFF" stroke="#191919" stroke-opacity="0.25" stroke-width="1"/>
<circle cx="347.0" cy="246.0" r="6.5" fill="#FFFFFF" stroke="#191919" stroke-opacity="0.25" stroke-width="1"/>
<text x="52" y="100" font-size="11" text-anchor="end" fill="#5C5C5C">pos 1</text>
<text x="52" y="150" font-size="11" text-anchor="end" fill="#5C5C5C">pos 2</text>
<text x="52" y="200" font-size="11" text-anchor="end" fill="#5C5C5C">pos 3</text>
<text x="52" y="250" font-size="11" text-anchor="end" fill="#5C5C5C">pos 4</text>
<text x="214" y="282" font-size="11" text-anchor="middle" fill="#D97757">orange = the path that survives verification</text>
<line x1="470" y1="244.0" x2="780" y2="244.0" stroke="#191919" stroke-opacity="0.1"/>
<text x="460" y="248.0" font-size="11" text-anchor="end" fill="#5C5C5C">0.6</text>
<line x1="470" y1="203.0" x2="780" y2="203.0" stroke="#191919" stroke-opacity="0.1"/>
<text x="460" y="207.0" font-size="11" text-anchor="end" fill="#5C5C5C">0.7</text>
<line x1="470" y1="162.0" x2="780" y2="162.0" stroke="#191919" stroke-opacity="0.1"/>
<text x="460" y="166.0" font-size="11" text-anchor="end" fill="#5C5C5C">0.8</text>
<line x1="470" y1="121.0" x2="780" y2="121.0" stroke="#191919" stroke-opacity="0.1"/>
<text x="460" y="125.0" font-size="11" text-anchor="end" fill="#5C5C5C">0.9</text>
<line x1="470" y1="80.0" x2="780" y2="80.0" stroke="#191919" stroke-opacity="0.1"/>
<text x="460" y="84.0" font-size="11" text-anchor="end" fill="#5C5C5C">1</text>
<polyline points="470.0,220.0 532.0,191.5 594.0,169.4 656.0,156.5 718.0,144.5 780.0,134.7" fill="none" stroke="#6B8CAE" stroke-width="2.6"/>
<circle cx="470.0" cy="220.0" r="3.5" fill="#6B8CAE"/>
<text x="470" y="262" font-size="11" text-anchor="middle" fill="#5C5C5C">1</text>
<circle cx="532.0" cy="191.5" r="3.5" fill="#6B8CAE"/>
<text x="532" y="262" font-size="11" text-anchor="middle" fill="#5C5C5C">2</text>
<circle cx="594.0" cy="169.4" r="3.5" fill="#6B8CAE"/>
<text x="594" y="262" font-size="11" text-anchor="middle" fill="#5C5C5C">3</text>
<circle cx="656.0" cy="156.5" r="3.5" fill="#6B8CAE"/>
<text x="656" y="262" font-size="11" text-anchor="middle" fill="#5C5C5C">4</text>
<circle cx="718.0" cy="144.5" r="3.5" fill="#6B8CAE"/>
<text x="718" y="262" font-size="11" text-anchor="middle" fill="#5C5C5C">5</text>
<circle cx="780.0" cy="134.7" r="3.5" fill="#6B8CAE"/>
<text x="780" y="262" font-size="11" text-anchor="middle" fill="#5C5C5C">6</text>
<text x="625" y="284" font-size="12" text-anchor="middle" fill="#191919">candidates offered at one position</text>
<text x="470" y="52" font-size="12.5" fill="#191919">acceptance at one position, 120k trials</text>
<text x="470" y="70" font-size="11" fill="#5C5C5C">every extra candidate is still exactly lossless</text>
</svg>