<svg viewBox="0 0 800 330" xmlns="http://www.w3.org/2000/svg" font-family="Inter, -apple-system, sans-serif">
<rect width="800" height="330" fill="#F4F3EF"/>
<line x1="115" y1="80" x2="71" y2="138" stroke="#191919" stroke-opacity="0.3" stroke-width="1.6"/>
<line x1="115" y1="80" x2="159" y2="138" stroke="#191919" stroke-opacity="0.3" stroke-width="1.6"/>
<line x1="71" y1="138" x2="45" y2="196" stroke="#191919" stroke-opacity="0.3" stroke-width="1.6"/>
<line x1="71" y1="138" x2="97" y2="196" stroke="#191919" stroke-opacity="0.3" stroke-width="1.6"/>
<circle cx="115" cy="80" r="13" fill="#FFFFFF" stroke="#191919" stroke-opacity="0.35"/>
<text x="115" y="84" font-size="12" font-weight="600" text-anchor="middle" fill="#191919">r</text>
<circle cx="71" cy="138" r="13" fill="#FFFFFF" stroke="#191919" stroke-opacity="0.35"/>
<text x="71" y="142" font-size="12" font-weight="600" text-anchor="middle" fill="#191919">a</text>
<circle cx="159" cy="138" r="13" fill="#FFFFFF" stroke="#191919" stroke-opacity="0.35"/>
<text x="159" y="142" font-size="12" font-weight="600" text-anchor="middle" fill="#191919">b</text>
<circle cx="45" cy="196" r="13" fill="#FFFFFF" stroke="#191919" stroke-opacity="0.35"/>
<text x="45" y="200" font-size="12" font-weight="600" text-anchor="middle" fill="#191919">c</text>
<circle cx="97" cy="196" r="13" fill="#FFFFFF" stroke="#191919" stroke-opacity="0.35"/>
<text x="97" y="200" font-size="12" font-weight="600" text-anchor="middle" fill="#191919">d</text>
<text x="115" y="48" font-size="12" text-anchor="middle" fill="#191919">the drafted tree</text>
<text x="115" y="234" font-size="11" text-anchor="middle" fill="#5C5C5C">b is a sibling of a, not its child</text>
<text x="300" y="113.0" font-size="11" text-anchor="end" fill="#5C5C5C">r</text>
<text x="327.0" y="84" font-size="11" text-anchor="middle" fill="#5C5C5C">r</text>
<text x="300" y="147.0" font-size="11" text-anchor="end" fill="#5C5C5C">a</text>
<text x="361.0" y="84" font-size="11" text-anchor="middle" fill="#5C5C5C">a</text>
<text x="300" y="181.0" font-size="11" text-anchor="end" fill="#5C5C5C">b</text>
<text x="395.0" y="84" font-size="11" text-anchor="middle" fill="#5C5C5C">b</text>
<text x="300" y="215.0" font-size="11" text-anchor="end" fill="#5C5C5C">c</text>
<text x="429.0" y="84" font-size="11" text-anchor="middle" fill="#5C5C5C">c</text>
<text x="300" y="249.0" font-size="11" text-anchor="end" fill="#5C5C5C">d</text>
<text x="463.0" y="84" font-size="11" text-anchor="middle" fill="#5C5C5C">d</text>
<rect x="311.5" y="93.5" width="31" height="31" rx="4" fill="#8DA399" fill-opacity="0.8"/>
<rect x="345.5" y="93.5" width="31" height="31" rx="4" fill="none" stroke="#191919" stroke-opacity="0.13"/>
<rect x="379.5" y="93.5" width="31" height="31" rx="4" fill="none" stroke="#191919" stroke-opacity="0.13"/>
<rect x="413.5" y="93.5" width="31" height="31" rx="4" fill="none" stroke="#191919" stroke-opacity="0.13"/>
<rect x="447.5" y="93.5" width="31" height="31" rx="4" fill="none" stroke="#191919" stroke-opacity="0.13"/>
<rect x="311.5" y="127.5" width="31" height="31" rx="4" fill="#8DA399" fill-opacity="0.8"/>
<rect x="345.5" y="127.5" width="31" height="31" rx="4" fill="#8DA399" fill-opacity="0.8"/>
<rect x="379.5" y="127.5" width="31" height="31" rx="4" fill="none" stroke="#191919" stroke-opacity="0.13"/>
<rect x="413.5" y="127.5" width="31" height="31" rx="4" fill="none" stroke="#191919" stroke-opacity="0.13"/>
<rect x="447.5" y="127.5" width="31" height="31" rx="4" fill="none" stroke="#191919" stroke-opacity="0.13"/>
<rect x="311.5" y="161.5" width="31" height="31" rx="4" fill="#8DA399" fill-opacity="0.8"/>
<rect x="345.5" y="161.5" width="31" height="31" rx="4" fill="#D97757" fill-opacity="0.95"/>
<rect x="379.5" y="161.5" width="31" height="31" rx="4" fill="#8DA399" fill-opacity="0.8"/>
<rect x="413.5" y="161.5" width="31" height="31" rx="4" fill="none" stroke="#191919" stroke-opacity="0.13"/>
<rect x="447.5" y="161.5" width="31" height="31" rx="4" fill="none" stroke="#191919" stroke-opacity="0.13"/>
<rect x="311.5" y="195.5" width="31" height="31" rx="4" fill="#8DA399" fill-opacity="0.8"/>
<rect x="345.5" y="195.5" width="31" height="31" rx="4" fill="#8DA399" fill-opacity="0.8"/>
<rect x="379.5" y="195.5" width="31" height="31" rx="4" fill="#D97757" fill-opacity="0.95"/>
<rect x="413.5" y="195.5" width="31" height="31" rx="4" fill="#8DA399" fill-opacity="0.8"/>
<rect x="447.5" y="195.5" width="31" height="31" rx="4" fill="none" stroke="#191919" stroke-opacity="0.13"/>
<rect x="311.5" y="229.5" width="31" height="31" rx="4" fill="#8DA399" fill-opacity="0.8"/>
<rect x="345.5" y="229.5" width="31" height="31" rx="4" fill="#8DA399" fill-opacity="0.8"/>
<rect x="379.5" y="229.5" width="31" height="31" rx="4" fill="#D97757" fill-opacity="0.95"/>
<rect x="413.5" y="229.5" width="31" height="31" rx="4" fill="#D97757" fill-opacity="0.95"/>
<rect x="447.5" y="229.5" width="31" height="31" rx="4" fill="#8DA399" fill-opacity="0.8"/>
<text x="560" y="113.0" font-size="11" text-anchor="end" fill="#5C5C5C">r</text>
<text x="587.0" y="84" font-size="11" text-anchor="middle" fill="#5C5C5C">r</text>
<text x="560" y="147.0" font-size="11" text-anchor="end" fill="#5C5C5C">a</text>
<text x="621.0" y="84" font-size="11" text-anchor="middle" fill="#5C5C5C">a</text>
<text x="560" y="181.0" font-size="11" text-anchor="end" fill="#5C5C5C">b</text>
<text x="655.0" y="84" font-size="11" text-anchor="middle" fill="#5C5C5C">b</text>
<text x="560" y="215.0" font-size="11" text-anchor="end" fill="#5C5C5C">c</text>
<text x="689.0" y="84" font-size="11" text-anchor="middle" fill="#5C5C5C">c</text>
<text x="560" y="249.0" font-size="11" text-anchor="end" fill="#5C5C5C">d</text>
<text x="723.0" y="84" font-size="11" text-anchor="middle" fill="#5C5C5C">d</text>
<rect x="571.5" y="93.5" width="31" height="31" rx="4" fill="#8DA399" fill-opacity="0.8"/>
<rect x="605.5" y="93.5" width="31" height="31" rx="4" fill="none" stroke="#191919" stroke-opacity="0.13"/>
<rect x="639.5" y="93.5" width="31" height="31" rx="4" fill="none" stroke="#191919" stroke-opacity="0.13"/>
<rect x="673.5" y="93.5" width="31" height="31" rx="4" fill="none" stroke="#191919" stroke-opacity="0.13"/>
<rect x="707.5" y="93.5" width="31" height="31" rx="4" fill="none" stroke="#191919" stroke-opacity="0.13"/>
<rect x="571.5" y="127.5" width="31" height="31" rx="4" fill="#8DA399" fill-opacity="0.8"/>
<rect x="605.5" y="127.5" width="31" height="31" rx="4" fill="#8DA399" fill-opacity="0.8"/>
<rect x="639.5" y="127.5" width="31" height="31" rx="4" fill="none" stroke="#191919" stroke-opacity="0.13"/>
<rect x="673.5" y="127.5" width="31" height="31" rx="4" fill="none" stroke="#191919" stroke-opacity="0.13"/>
<rect x="707.5" y="127.5" width="31" height="31" rx="4" fill="none" stroke="#191919" stroke-opacity="0.13"/>
<rect x="571.5" y="161.5" width="31" height="31" rx="4" fill="#8DA399" fill-opacity="0.8"/>
<rect x="605.5" y="161.5" width="31" height="31" rx="4" fill="none" stroke="#191919" stroke-opacity="0.13"/>
<rect x="639.5" y="161.5" width="31" height="31" rx="4" fill="#8DA399" fill-opacity="0.8"/>
<rect x="673.5" y="161.5" width="31" height="31" rx="4" fill="none" stroke="#191919" stroke-opacity="0.13"/>
<rect x="707.5" y="161.5" width="31" height="31" rx="4" fill="none" stroke="#191919" stroke-opacity="0.13"/>
<rect x="571.5" y="195.5" width="31" height="31" rx="4" fill="#8DA399" fill-opacity="0.8"/>
<rect x="605.5" y="195.5" width="31" height="31" rx="4" fill="#8DA399" fill-opacity="0.8"/>
<rect x="639.5" y="195.5" width="31" height="31" rx="4" fill="none" stroke="#191919" stroke-opacity="0.13"/>
<rect x="673.5" y="195.5" width="31" height="31" rx="4" fill="#8DA399" fill-opacity="0.8"/>
<rect x="707.5" y="195.5" width="31" height="31" rx="4" fill="none" stroke="#191919" stroke-opacity="0.13"/>
<rect x="571.5" y="229.5" width="31" height="31" rx="4" fill="#8DA399" fill-opacity="0.8"/>
<rect x="605.5" y="229.5" width="31" height="31" rx="4" fill="#8DA399" fill-opacity="0.8"/>
<rect x="639.5" y="229.5" width="31" height="31" rx="4" fill="none" stroke="#191919" stroke-opacity="0.13"/>
<rect x="673.5" y="229.5" width="31" height="31" rx="4" fill="none" stroke="#191919" stroke-opacity="0.13"/>
<rect x="707.5" y="229.5" width="31" height="31" rx="4" fill="#8DA399" fill-opacity="0.8"/>
<text x="310" y="62" font-size="12.5" fill="#191919">plain causal mask</text>
<text x="570" y="62" font-size="12.5" fill="#191919">tree mask</text>
<text x="310" y="288" font-size="11" fill="#D97757">orange = lets a node see a sibling it must not see</text>
<text x="570" y="288" font-size="11" fill="#5C5C5C">each node sees only its own ancestors</text>
<text x="310" y="310" font-size="11" fill="#5C5C5C">rows attend to columns</text>
</svg>